<?xml version="1.0" encoding="UTF-8"?>
<svg xmlns="http://www.w3.org/2000/svg" viewBox="0 0 510.24 260.87">
  <defs>
    <style>
      .cls-1 {
        fill: #fff;
      }

      .cls-2 {
        fill: #a61d1e;
      }

      .cls-3 {
        fill: #222221;
      }
    </style>
  </defs>
  <g id="JKNM">
    <path class="cls-3" d="M434.77,188.06c-1.4-.74-2.49-1.77-3.29-3.07-.8-1.31-1.19-2.78-1.19-4.42s.4-3.11,1.19-4.42c.8-1.31,1.89-2.33,3.29-3.07,1.39-.74,2.97-1.11,4.72-1.11s3.32.37,4.72,1.11c1.4.74,2.49,1.77,3.29,3.07.79,1.31,1.19,2.78,1.19,4.42s-.4,3.11-1.19,4.42c-.8,1.31-1.89,2.33-3.29,3.07-1.4.74-2.97,1.11-4.72,1.11s-3.32-.37-4.72-1.11ZM441.76,184.7c.68-.39,1.21-.95,1.61-1.67.39-.72.59-1.54.59-2.47s-.2-1.75-.59-2.47c-.39-.72-.93-1.27-1.61-1.67-.68-.39-1.44-.59-2.27-.59s-1.59.2-2.27.59c-.68.39-1.21.95-1.61,1.67-.39.72-.59,1.54-.59,2.47s.2,1.75.59,2.47c.39.72.93,1.27,1.61,1.67.68.39,1.43.59,2.27.59s1.59-.2,2.27-.59Z"/>
    <path class="cls-3" d="M420.24,175.81h-5.08v-3.71h14.82v3.71h-5.06v12.84h-4.68v-12.84Z"/>
    <path class="cls-3" d="M415.13,180.9c-.61-.67-1.32-1.16-2.15-1.47-.83-.31-1.87-.6-3.13-.86-1.12-.24-1.93-.46-2.44-.69-.5-.22-.76-.55-.76-.99s.21-.8.64-1.08c.43-.28,1.1-.41,2.03-.41,1.21,0,2.68.16,4.41.3v-3.65c-.37-.04-.74-.09-1.32-.14-1.22-.11-1.98-.16-3.06-.16-1.59,0-2.94.24-4.03.71-1.1.47-1.92,1.11-2.47,1.93-.55.81-.83,1.72-.83,2.73,0,1.15.3,2.07.9,2.74.6.68,1.32,1.17,2.15,1.48.83.31,1.88.6,3.12.86,1.13.25,1.96.49,2.47.72.51.23.77.58.77,1.05,0,.9-.9,1.35-2.7,1.35-.95,0-1.91-.15-2.89-.45-.98-.3-1.84-.69-2.58-1.18l-1.54,3.45c.79.55,1.81.99,3.07,1.32,1.26.33,2.56.5,3.9.5,1.58,0,2.92-.24,4.02-.72,1.1-.48,1.93-1.12,2.48-1.93.55-.8.83-1.7.83-2.7,0-1.15-.3-2.06-.91-2.73Z"/>
    <path class="cls-3" d="M400.54,185.03v3.62h-13.29v-16.55h12.98v3.62h-8.35v2.79h7.35v3.5h-7.35v3.03h8.65Z"/>
    <path class="cls-3" d="M380.01,188.65l-.05-8.77-4.26,7.14h-2.08l-4.23-6.9v8.54h-4.33v-16.55h3.85l5.82,9.55,5.67-9.55h3.85l.05,16.55h-4.3Z"/>
    <path class="cls-3" d="M339.94,187.87c-1.4-.74-2.49-1.77-3.29-3.07-.8-1.31-1.19-2.78-1.19-4.42s.4-3.11,1.19-4.42c.8-1.31,1.89-2.33,3.29-3.07,1.39-.74,2.97-1.11,4.72-1.11s3.32.37,4.72,1.11c1.4.74,2.49,1.77,3.29,3.07.79,1.31,1.19,2.78,1.19,4.42s-.4,3.11-1.19,4.42c-.8,1.31-1.89,2.33-3.29,3.07-1.4.74-2.97,1.11-4.72,1.11s-3.32-.37-4.72-1.11ZM346.92,184.51c.68-.39,1.21-.95,1.61-1.67.39-.72.59-1.54.59-2.47s-.2-1.75-.59-2.47c-.39-.72-.93-1.27-1.61-1.67-.68-.39-1.44-.59-2.27-.59s-1.59.2-2.27.59c-.68.39-1.21.95-1.61,1.67-.39.72-.59,1.54-.59,2.47s.2,1.75.59,2.47c.39.72.93,1.27,1.61,1.67.68.39,1.43.59,2.27.59s1.59-.2,2.27-.59Z"/>
    <path class="cls-3" d="M336.5,172.1l-7.09,16.55h-4.61l-7.07-16.55h5.06l4.49,10.78,4.59-10.78h4.63Z"/>
    <path class="cls-3" d="M304.93,187.87c-1.4-.74-2.49-1.77-3.29-3.07-.8-1.31-1.19-2.78-1.19-4.42s.4-3.11,1.19-4.42c.8-1.31,1.89-2.33,3.29-3.07,1.39-.74,2.97-1.11,4.72-1.11s3.32.37,4.72,1.11c1.4.74,2.49,1.77,3.29,3.07.79,1.31,1.19,2.78,1.19,4.42s-.4,3.11-1.19,4.42c-.8,1.31-1.89,2.33-3.29,3.07-1.4.74-2.97,1.11-4.72,1.11s-3.32-.37-4.72-1.11ZM311.92,184.51c.68-.39,1.21-.95,1.61-1.67.39-.72.59-1.54.59-2.47s-.2-1.75-.59-2.47c-.39-.72-.93-1.27-1.61-1.67-.68-.39-1.44-.59-2.27-.59s-1.59.2-2.27.59c-.68.39-1.21.95-1.61,1.67-.39.72-.59,1.54-.59,2.47s.2,1.75.59,2.47c.39.72.93,1.27,1.61,1.67.68.39,1.43.59,2.27.59s1.59-.2,2.27-.59Z"/>
    <path class="cls-3" d="M299.08,172.1v16.55h-3.85l-7.31-8.82v8.82h-4.59v-16.55h3.85l7.31,8.82v-8.82h4.59Z"/>
    <path class="cls-3" d="M485.1,158.69c.54.7.8,1.55.8,2.54,0,1.45-.58,2.57-1.75,3.36s-2.85,1.18-5.06,1.18h-8.94v-16.55h8.46c2.11,0,3.72.39,4.82,1.17,1.1.78,1.65,1.83,1.65,3.16,0,.79-.19,1.49-.58,2.12-.39.62-.93,1.12-1.64,1.48.95.33,1.69.85,2.22,1.55ZM474.79,152.6v3.19h3.22c1.58,0,2.36-.54,2.36-1.61s-.79-1.58-2.36-1.58h-3.22ZM481.17,160.71c0-1.12-.82-1.68-2.46-1.68h-3.92v3.36h3.92c1.64,0,2.46-.56,2.46-1.68Z"/>
    <path class="cls-3" d="M453.84,164.09c-1.36-1.34-2.04-3.24-2.04-5.7v-9.17h4.68v9.03c0,2.65,1.05,3.97,3.14,3.97s3.12-1.32,3.12-3.97v-9.03h4.61v9.17c0,2.46-.68,4.36-2.04,5.7-1.36,1.34-3.28,2.01-5.73,2.01s-4.37-.67-5.73-2.01Z"/>
    <path class="cls-3" d="M438.34,149.22h4.68v12.84h7.9v3.71h-12.58v-16.55Z"/>
    <path class="cls-3" d="M427.26,159.76l-1.75,1.87v4.14h-4.63v-16.55h4.63v6.88l6.41-6.88h5.16l-6.76,7.33,7.12,9.22h-5.44l-4.73-6.01Z"/>
    <path class="cls-3" d="M403.65,149.22h4.68v16.55h-4.68v-16.55Z"/>
    <path class="cls-3" d="M392.57,159.76l-1.75,1.87v4.14h-4.63v-16.55h4.63v6.88l6.41-6.88h5.16l-6.76,7.33,7.12,9.22h-5.44l-4.73-6.01Z"/>
    <path class="cls-3" d="M373.11,165.6c-1.26-.33-2.29-.77-3.07-1.32l1.54-3.45c.74.49,1.6.88,2.58,1.18.98.3,1.94.45,2.89.45,1.8,0,2.7-.45,2.7-1.35,0-.47-.26-.82-.77-1.05s-1.34-.47-2.47-.72c-1.24-.27-2.29-.56-3.12-.86-.84-.31-1.55-.8-2.15-1.48-.6-.68-.9-1.59-.9-2.74,0-1.01.27-1.92.83-2.73.55-.81,1.37-1.45,2.47-1.93,1.1-.47,2.44-.71,4.03-.71,1.09,0,2.16.12,3.22.37,1.06.24,1.99.6,2.79,1.08l-1.44,3.48c-1.58-.85-3.11-1.28-4.59-1.28-.93,0-1.61.14-2.03.41-.43.28-.64.64-.64,1.08s.25.77.76.99,1.32.45,2.44.69c1.26.27,2.31.56,3.13.86.83.31,1.55.8,2.15,1.47.61.67.91,1.58.91,2.73,0,.99-.28,1.89-.83,2.7-.55.8-1.38,1.45-2.48,1.93-1.1.48-2.44.72-4.02.72-1.34,0-2.64-.17-3.9-.5Z"/>
    <path class="cls-3" d="M361.25,161.37h-2.55v4.4h-4.68v-16.55h7.57c1.5,0,2.8.25,3.9.74,1.1.5,1.96,1.21,2.55,2.13.6.92.9,2.01.9,3.25s-.28,2.24-.84,3.13c-.56.89-1.36,1.59-2.4,2.09l3.57,5.2h-5.01l-3-4.4ZM363.47,153.55c-.49-.43-1.21-.64-2.17-.64h-2.6v4.85h2.6c.96,0,1.69-.21,2.17-.63.49-.42.73-1.01.73-1.79s-.24-1.37-.73-1.8Z"/>
    <path class="cls-3" d="M346.9,162.55h-7l-1.3,3.22h-4.77l7.31-16.55h4.61l7.33,16.55h-4.87l-1.3-3.22ZM345.52,159.1l-2.13-5.3-2.13,5.3h4.26Z"/>
    <path class="cls-3" d="M328.55,165.77l-.05-8.77-4.26,7.14h-2.08l-4.23-6.9v8.54h-4.33v-16.55h3.85l5.82,9.55,5.67-9.55h3.85l.05,16.55h-4.3Z"/>
    <path class="cls-3" d="M306.49,162.55h-7l-1.3,3.22h-4.77l7.31-16.55h4.61l7.33,16.55h-4.87l-1.3-3.22ZM305.12,159.1l-2.13-5.3-2.13,5.3h4.26Z"/>
    <path class="cls-3" d="M283.64,165.47c-.99-.42-1.81-1.02-2.44-1.81l2.55-3.03c.88,1.15,1.84,1.73,2.86,1.73.68,0,1.19-.21,1.55-.62.35-.41.53-1.01.53-1.8v-7.12h-5.72v-3.62h10.36v10.45c0,2.14-.54,3.75-1.62,4.82-1.08,1.07-2.67,1.61-4.76,1.61-1.21,0-2.32-.21-3.31-.63Z"/>
    <polygon class="cls-2" points="510.03 70.49 492.91 70.49 467.72 112.91 441.89 70.49 424.77 70.49 424.77 143.99 443.99 143.99 443.99 106.09 462.78 136.74 472.02 136.74 490.92 105.04 491.13 165.74 510.24 165.74 510.03 70.49"/>
    <polygon class="cls-2" points="399.08 109.65 366.64 70.49 359.95 70.49 349.53 81.69 349.53 135.03 324.84 103.04 354.87 70.49 331.98 70.49 303.53 101.05 303.53 70.49 282.95 70.49 282.95 143.99 303.53 143.99 303.53 125.61 311.3 117.32 332.3 143.99 349.53 143.99 356.44 143.99 369.9 143.99 369.9 104.83 402.34 143.99 419.45 143.99 419.45 70.49 399.08 70.49 399.08 109.65"/>
    <path class="cls-2" d="M254.13,70.49h-21.9c.06.31.13.63.19.94.95,4.97,1.77,10.01,2.47,15.12h24.37v76.52c0,3.5-1.04,6.58-2.62,8.4-1.57,1.82-5.42,2.31-8.43,2.31-2.3,0-4.52-.66-6.65-1.96v17.77c2.57.52,5.28.78,8.12.78,9.31,0,16.36-2.38,21.16-7.14,4.79-4.76,7.19-11.9,7.19-21.42v-91.33h-23.91Z"/>
  </g>
  <g id="Ozadje_Bela" data-name="Ozadje Bela">
    <path id="Bela" class="cls-1" d="M232.23,70.49c-1.2-6.09-2.66-12.13-4.4-18.13-2.36-8.13-5.41-16.04-9.41-23.46-2.41-4.46-5.3-8.73-8.74-12.48-.95-1.04-1.77-1.83-2.47-2.37-2.06-1.6-4.4-2.81-6.76-3.79-4.34-1.79-8.57-2.97-13.41-4.08-3.71-.85-7.89-1.62-12.56-2.32-5.34-.8-10.85-1.46-16.52-1.98-10.22-.93-20.43-1.51-30.65-1.76-.9-.02-1.58-.04-2.03-.07-2.03-.1-3.15-.07-6.26-.07s-4.23-.04-6.26.07c-.45.02-1.13.05-2.03.07-10.21.24-20.43.83-30.65,1.76-5.67.52-11.18,1.18-16.52,1.98-4.67.7-8.86,1.48-12.56,2.33-4.85,1.11-9.08,2.29-13.41,4.08-2.36.98-4.7,2.19-6.76,3.79-.69.54-1.51,1.33-2.47,2.37-3.43,3.75-6.33,8.02-8.74,12.48-4,7.42-7.05,15.33-9.41,23.46-1.83,6.31-3.36,12.66-4.59,19.07-1.64,8.55-2.91,17.31-3.81,26.29-.74,7.39-1.25,14.26-1.52,20.62-.06,1.35-.14,3.54-.25,6.57-.06,1.79-.05,3.57-.05,5.51,0,1.94-.01,3.73.05,5.51.11,3.04.19,5.23.25,6.58.27,6.36.78,13.24,1.53,20.62.9,8.97,2.18,17.73,3.82,26.29,1.23,6.41,2.76,12.76,4.59,19.07,2.36,8.13,5.41,16.04,9.41,23.46,2.41,4.46,5.3,8.73,8.74,12.48.95,1.04,1.77,1.83,2.47,2.37,2.06,1.6,4.4,2.81,6.76,3.79,4.34,1.79,8.57,2.97,13.41,4.08,3.71.85,7.89,1.62,12.56,2.32,5.34.8,10.85,1.46,16.52,1.98,10.22.93,20.43,1.51,30.65,1.76.9.02,1.58.04,2.03.07,2.03.1,3.15.07,6.26.07s4.23.04,6.26-.07c.45-.02,1.13-.05,2.03-.07,10.21-.24,20.43-.83,30.65-1.76,5.67-.52,11.18-1.18,16.52-1.98,4.67-.7,8.86-1.48,12.56-2.33,4.85-1.11,9.08-2.29,13.41-4.08,2.36-.98,4.7-2.19,6.76-3.79.69-.54,1.51-1.33,2.47-2.37,3.43-3.75,6.33-8.02,8.74-12.48,4-7.42,7.05-15.33,9.41-23.46,1.83-6.31,3.36-12.66,4.59-19.07,1.64-8.55,2.91-17.31,3.81-26.29.74-7.39,1.25-14.26,1.52-20.62.06-1.35.14-3.54.25-6.58.06-1.79.05-3.57.05-5.51s.01-3.72-.05-5.51c-.11-3.04-.19-5.23-.25-6.57-.27-6.36-.78-13.24-1.53-20.62-.38-3.76-.84-7.48-1.35-11.16-.7-5.11-1.52-10.16-2.47-15.12-.06-.31-.13-.63-.19-.94Z"/>
  </g>
  <g id="_Črno" data-name="Črno">
    <path class="cls-3" d="M119.02,13.65c2.78,0,3.78-.03,5.6.06.41.02,1.01.04,1.82.06,9.14.22,18.29.74,27.44,1.57,5.08.46,10.01,1.05,14.79,1.77,4.18.63,7.93,1.32,11.25,2.08,4.34.99,8.13,2.05,12.01,3.65,2.12.87,4.21,1.96,6.05,3.39.62.48,1.36,1.19,2.21,2.12,3.07,3.36,5.67,7.18,7.82,11.18,3.58,6.64,6.31,13.73,8.43,21,1.64,5.65,3.01,11.34,4.11,17.07,1.47,7.66,2.61,15.5,3.42,23.54.67,6.61,1.12,12.77,1.37,18.47.05,1.21.13,3.17.22,5.89.06,1.6.04,3.2.04,4.93s.01,3.34-.04,4.93c-.1,2.72-.17,4.68-.22,5.89-.24,5.7-.7,11.85-1.36,18.47-.81,8.03-1.95,15.88-3.42,23.54-1.1,5.74-2.47,11.43-4.11,17.07-2.11,7.28-4.84,14.36-8.42,21-2.15,3.99-4.75,7.82-7.82,11.18-.85.93-1.59,1.64-2.21,2.12-1.84,1.43-3.94,2.52-6.05,3.39-3.88,1.6-7.67,2.66-12.01,3.65-3.32.76-7.07,1.45-11.25,2.08-4.78.72-9.71,1.31-14.79,1.77-9.15.83-18.3,1.36-27.44,1.57-.81.02-1.41.04-1.82.06-1.82.09-2.82.06-5.6.06s-3.78.04-5.6-.06c-.41-.02-1.01-.04-1.82-.06-9.14-.22-18.29-.74-27.44-1.57-5.08-.46-10.01-1.05-14.79-1.77-4.18-.63-7.93-1.32-11.25-2.08-4.34-.99-8.13-2.05-12.01-3.65-2.12-.87-4.21-1.96-6.05-3.39-.62-.48-1.36-1.19-2.21-2.12-3.07-3.36-5.67-7.18-7.82-11.18-3.58-6.64-6.31-13.73-8.43-21-1.64-5.65-3.01-11.34-4.11-17.07-1.47-7.66-2.61-15.5-3.42-23.54-.67-6.62-1.12-12.77-1.37-18.47-.05-1.21-.13-3.17-.22-5.89-.06-1.6-.04-3.2-.04-4.93,0-1.73-.01-3.33.04-4.93.09-2.72.17-4.68.22-5.89.24-5.7.7-11.85,1.36-18.47.81-8.03,1.95-15.88,3.42-23.54,1.1-5.74,2.47-11.43,4.11-17.07,2.11-7.28,4.84-14.36,8.42-21,2.15-3.99,4.75-7.82,7.82-11.18.85-.93,1.59-1.64,2.21-2.12,1.84-1.43,3.94-2.52,6.05-3.39,3.88-1.6,7.67-2.66,12.01-3.65,3.32-.76,7.07-1.45,11.25-2.08,4.78-.72,9.71-1.31,14.79-1.77,9.15-.83,18.3-1.36,27.44-1.57.81-.02,1.41-.04,1.82-.06,1.82-.09,2.82-.06,5.6-.06ZM186.57,88.02c1.13.58,1.86,1.43,2.18,2.54.62,2.14-.66,4.23-2.77,4.8-.41.11-.69.08-1.22.11-.05,0-.09.04-.11.08l-3.06,10.16s-.02.04-.03.06c-.11.12-.19.09-.26-.1-.19-.52-.36-1.09-.52-1.73-.08-.32-.06-.65.04-1.01.44-1.5,1.33-4.48,2.66-8.94.05-.15.2-.24.35-.21.76.16,1.78.24,2.42-.18.78-.52,1.24-1.55,1.03-2.42-.24-1.01-.92-1.66-2.03-1.94-.39-.1-.55-.3-.48-.62.26-1.25.49-2.38.69-3.4,1.32-6.86,2.33-12.1,3.04-15.73.07-.38.08-.61.47-.67.31-.05.77.02,1.14-.08,1.4-.36,2.16-1.74,1.66-3.09-.45-1.23-1.45-1.47-2.65-1.66-.22-.04-.33-.17-.33-.39.01-3.4.02-8.43.02-15.09v-.15c0-.07.07-.12.14-.11.88.21,1.75.15,2.42-.51.51-.5.92-1.38.72-2.11-.13-.47-.38-1.12-.81-1.42-.65-.45-1.1-.5-2.06-.74-.1-.02-.17-.11-.17-.22v-13.98c0-.07-.04-.14-.11-.17l-1.19-.51c-.06-.03-.13.02-.13.09v14.24c0,.08-.07.13-.15.11l-18.86-4.44s-.07-.04-.08-.08c-.09-.26-.17-.46-.23-.62-.47-1.2-1.3-2.1-2.47-2.71-.24-.12-.35-.34-.35-.64.02-1.31.02-4.96.02-10.93,0-.04,0-.12-.01-.25,0-.04-.03-.07-.07-.07l-1.13-.19c-.05,0-.1.03-.1.08v12.7s.03.09.07.11c.23.12.7.25,1.04.44,1.23.73,1.91,1.85,2.02,3.36,0,.04.03.07.07.08.22.07.92.24,2.1.52,11.68,2.75,18.52,4.37,20.52,4.84.86.2.53,1.78-.48,1.54-9.26-2.18-16.01-3.78-20.23-4.77-1.03-.24-1.74-.42-2.13-.53-.13-.04-.26.02-.32.14-.44.86-1.15,1.42-2.02,1.8-.08.03-.12.11-.11.19l2.07,14.73c.02.17.15.3.32.33,1.48.25,2.52,1.06,3.14,2.44.13.3.21.65.24,1.04,0,.12.09.22.21.25.33.07.72.14,1.19.22,7.4,1.27,13.2,2.25,17.41,2.95.37.06.62.14.75.24.46.34.37,1.14-.14,1.35-.14.06-.41.05-.8-.01-5.14-.88-11.4-1.93-18.79-3.15-.07-.01-.14.03-.17.1-.25.66-.67,1.19-1.27,1.6-.36.25-.5.47-.39.89,2.42,9.18,3.95,15.04,4.61,17.59.05.21.13.39.23.57.05.09.15.15.25.15.49.02.89.04,1.31.19,1.27.44,2.09,1.33,2.46,2.65.09.32.08.61.11.97,0,.08.07.16.15.18,3.1.81,5.48,1.41,7.15,1.82.46.11.73.22.83.34.28.34.27,1.14-.26,1.3-.22.07-.47.07-.75,0-2.63-.68-5.11-1.31-7.42-1.88-.03,0-.06,0-.08.04-.33.68-.78,1.2-1.34,1.57-.1.07-.12.21-.05.42,2.11,6.76,3.69,11.77,4.74,15.04.24.76.43,1.4.55,1.93,0,.03.03.05.06.05,2.05.04,3.66,1,4.2,3.05.42,1.59-.4,3.25-1.68,4.17-.08.06-.12.17-.09.26l6.3,18.89c.03.09-.03.18-.12.2-.58.11-1.05.33-1.41.65-1.28,1.19-.92,3.1.65,3.82.56.26,1.34.17,2.02.17.13,0,.25.09.28.22,1.38,5.9,2.42,11.83,3.12,17.79.02.18.04.37.05.59,0,.09.07.17.15.19,2.24.66,2.65,3.45.63,4.68-.04.03-.08.07-.1.12-.05.14-.07.28-.06.43.25,2.38.48,4.74.69,7.09.16,1.79.33,4.86.53,9.21,0,.03.02.06.05.07,2.24.8,2.55,3.59.4,4.74-.14.07-.23.22-.23.37-.03,2.63.15,5.47.15,7.89,0,2.88-.03,4.06.07,6.55.05,1.27.07,2.88.03,4.85,0,.15.02.29.07.44.02.06.06.1.11.13.36.18.65.28.88.5.4.38.64.8.73,1.27.25,1.46-.28,2.47-1.6,3.03-.1.05-.17.15-.17.26.03,1.91-.06,3.86-.27,5.87-.02.16.06.31.2.39,1.04.6,1.06,1.44.96,2.5-.07.67-.13,1.41-.52,1.89-1.05,1.32-3.39.82-3.6-.93-.09-.78-.03-1.55.19-2.31.21-.73.72-1.14,1.37-1.46.05-.03.09-.08.09-.14.16-1.96.26-3.6.31-4.9,0-.26,0-.52-.02-.78-.01-.16-.1-.3-.24-.38-.56-.31-1.1-.56-1.35-1.05-.04-.07-.11-.11-.19-.1-7.59,1.09-14.84,2.16-21.72,3.2-.38.06-.64.05-.77-.01-.48-.24-.57-.95-.25-1.34.09-.11.31-.19.68-.24,5.69-.87,12.96-1.99,21.82-3.38.09-.01.16-.08.19-.16.22-.74.72-1.31,1.49-1.72.06-.03.1-.09.09-.16,0-2.52.01-4.48-.1-7.5-.07-1.97,0-3.97-.1-6.15-.1-2.11-.07-4.1-.06-6.13,0-.1-.07-.18-.16-.2-.49-.13-.9-.43-1.21-.89-.05-.07-.13-.1-.21-.09-5.74,1.14-13.16,2.63-22.26,4.45-.64.13-1.15-.1-1.15-.84,0-.41.25-.66.74-.76.65-.13,1.1-.22,1.35-.27,8.74-1.82,15.69-3.28,20.86-4.37.1-.02.17-.09.2-.19.23-.78.72-1.36,1.48-1.74.06-.03.1-.09.1-.16,0-1.01-.03-2.01-.08-3-.24-4.52-.61-9.02-1.13-13.51,0-.07-.06-.13-.13-.15-.63-.19-1.1-.5-1.43-.95-.07-.09-.18-.14-.3-.11-.74.18-1.52.35-2.33.5-3.7.71-7.76,1.52-12.18,2.43-3.23.66-5.41,1.12-6.55,1.38-1.26.29-1.55-1.39-.39-1.64,5.91-1.25,12.83-2.7,20.75-4.36.18-.04.38-.02.51-.11.04-.03.07-.07.08-.11.13-.81.53-1.26,1.2-1.72.05-.04.09-.09.11-.15.05-.16.06-.35.03-.58-.64-5.58-1.6-11.13-2.88-16.67,0-.03-.03-.05-.06-.05-1.1-.03-2.03-.41-2.8-1.13-.3-.28-.55-.7-.87-1.01-.04-.04-.1-.05-.15-.04-4.75,1.11-9.36,2.21-13.85,3.3-.56.14-.99-.3-.98-.86,0-.4.24-.66.71-.77.76-.18,1.21-.28,1.34-.31,2.34-.57,4.65-1.12,6.92-1.64,2.29-.52,4.16-.97,5.61-1.33.05-.01.09-.06.1-.11.04-.22.09-.48.15-.77.2-1.07.83-1.91,1.75-2.51.05-.03.07-.08.05-.13l-5.88-17.63s-.04-.05-.07-.05c-.72,0-1.36-.06-2.01-.34-2.88-1.25-3.06-5.18-.5-6.84.12-.08.18-.23.13-.37l-5.37-17.02c-.02-.08-.09-.13-.17-.13-.25,0-.47-.02-.67-.02-.84-.02-1.67-.39-2.27-.95-1.59-1.47-1.73-3.89-.24-5.53.19-.21.77-.54.91-1,.02-.07.02-.14,0-.2l-4.71-18.16c-.04-.16-.18-.28-.34-.29-1.59-.13-2.72-.8-3.39-2.02-.94-1.7-.52-3.68.93-4.92.14-.12.44-.31.91-.56.04-.02.07-.05.09-.08.07-.12.09-.25.07-.41-1.16-8.22-1.84-13.08-2.06-14.58-.01-.09-.08-.17-.18-.18-1.68-.29-2.78-1.18-3.3-2.68-.42-1.2-.2-2.54.59-3.52.5-.62,1.06-1.05,1.68-1.28.28-.11.45-.17.51-.2.08-.03.14-.11.14-.2v-12.88s0-.02-.01-.02l-1.24-.21s-.04.01-.04.03c0,6.39,0,10.35.01,11.9,0,.2-.07.33-.22.41-1.58.87-2.55,2.14-2.91,3.82-.14.65-.13,1.31.03,1.98.47,1.97,1.66,3.3,3.6,3.99.07.02.11.08.12.15l1.78,12.78s0,.05,0,.08c-.02.21-.1.37-.25.47-1.49,1.04-2.4,3.23-2.08,5.02.33,1.85,1.55,3.45,3.33,4.08.36.13.62.22.79.29.16.06.29.2.33.37,1.72,6.52,3.13,11.87,4.23,16.04.07.26.08.49.03.67-.01.04-.04.08-.07.11-1.3,1.19-1.86,2.69-1.67,4.49.25,2.37,2.27,4.26,4.54,4.56.1.01.18.08.21.17l4.35,13.8c.05.17.06.36,0,.54-.58,1.89-1.02,3.16-1.51,4.97-.4,1.46-.83,2.98-1.29,4.55-.6,2.07-1.05,4-1.6,6.1-.31,1.22-.8,3.46-1.45,6.72-.02.1-.04.17-.06.2-.04.06-.13.05-.15-.02-.49-1.93-.74-2.92-.76-2.98-.05-.14-.08-.34-.11-.61-.19-1.69-.26-2.7-.51-4.1-.14-.79-.22-1.3-.24-1.55-.06-.94-.15-2.39-.3-4.34-.04-.61-.3-1.77-.95-1.95-.76-.21-1.14,1.15-1.19,1.7-.08,1-.15,2.16-.2,3.5-.02.6-.11,1.89-.27,3.84-.06.73-.24,1.27-.36,1.97-.07.43-.2.91-.4,1.44-.47,1.28-1,2.46-1.6,3.53-.08.14-.26.17-.38.07-.15-.12-.27-.31-.36-.54-.35-.99-.75-1.82-1.19-2.47-.65-.96-.95-1.75-1.22-2.82-.19-.75-.38-1.49-.57-2.22-.22-.89-.49-1.64-.79-2.56-.13-.39-.46-1.12-.78-1.46-.21-.22-.54.03-.61.22-.38,1.05-.8,2.34-1.27,3.87-.33,1.09-.7,2.11-1.11,3.07-.18.43-.35.89-.43,1.25-.24,1.1-.4,1.85-.48,2.27-.2.98-.58,1.81-.93,2.78-.34.96-.54,1.94-.6,2.94-.06,1.04-.2,3.33-.43,6.86-.05.76-.11,1.32-.2,1.68-.02.07-.15.62-.4,1.64-.12.52-.41.88-.86,1.1-.48.24-1.03-.46-1.15-.84-.22-.71-.3-1.15-.57-1.83-.13-.33-.23-.67-.29-1.04-.09-.54-.21-1.31-.37-2.31-.03-.18-.18-.64-.46-1.37-.42-1.11-.63-2.02-.46-3.03.14-.85.23-1.47.28-1.86.13-1.15-.05-2.24-.55-3.25-.46-.95-.76-1.58-.91-1.87-.38-.79-.71-1.75-.92-2.35-.22-.62-.35-1.14-.39-1.57-.21-2.06-.34-3.41-.41-4.03-.05-.47-.2-1.06-.45-1.76-1.01-2.82-1.64-4.57-1.9-5.25-.44-1.14-1.09-2.6-1.61-3.53-.43-.77-.99-1.47-1.68-2.09-.12-.11-.15-.28-.06-.41.04-.07.13-.12.25-.15.52-.14.92-.25,1.21-.31,1.73-.41,2.88-2.31,3.12-3.99.24-1.6.51-3.11.82-4.53.13-.58.24-1.02.35-1.3.4-1.11.68-2.14,1.17-3.15,1.17-2.38,2.54-4.74,4.34-6.72,1.19-1.31,2.37-2.51,3.55-3.61.88-.82,1.9-1.54,3.07-2.17.21-.11.38-.25.5-.4.09-.11.08-.27-.02-.37-.41-.41-1.63-.49-2.28-.51-1.82-.06-3.66.13-5.53.59-1.59.39-3.09.85-4.53,1.39-2.66,1-4.01,1.51-4.05,1.53-2.21.86-4.55,1.97-7.02,3.34-2.81,1.56-5.46,3.57-7.69,5.68-1.47,1.4-2.76,2.76-3.88,4.09-.82.98-1.46,1.81-1.92,2.5-1.29,1.96-2.47,3.86-3.54,5.69-1.05,1.81-.82,3.41.69,4.79.43.39.88.77,1.33,1.11,1.59,1.21,2.51,1.88,3.7,2.93.57.51,1.8,1.54,3.69,3.11,1.61,1.34,3.11,2.9,4.48,4.67.3.38.59.69.89.94.15.12.33.11.54-.03.42-.28.53-.77.33-1.27-.29-.73-.67-1.37-1.16-1.92-1.25-1.41-2.9-2.94-4.57-4.31-1.47-1.21-3.24-2.82-5-4.16-.73-.56-1.46-1.15-2.2-1.77-.18-.15-.29-.3-.35-.45-.05-.14,0-.29.13-.37.17-.11.36-.21.57-.32.88-.43,2-.92,3.36-1.47.96-.39,2.12-.77,3.48-1.14,1.85-.5,3.44-.89,4.75-1.17,1.38-.28,2.52-.46,3.41-.51,1.64-.1,3.4-.12,4.99.26.51.12.96.59.42,1.05-.14.12-.28.19-.43.22-1.52.31-2.86,1-4.03,2.06-.76.69-1.3,1.59-1.77,2.41-.95,1.64-1.47,3.75-1.3,5.74.14,1.55.34,2.84.94,4.08.42.87.69,1.61.8,2.22.17.92-.46,1.95-1.13,2.52-.57.49-1.06.87-1.48,1.25-.7.65-1.38,1.25-2.04,1.8-1.89,1.6-3.46,3.33-4.69,5.39-.41.69-.9,1.6-1.47,2.76-.43.86-.72,1.58-.89,2.14-.38,1.32-.7,2.82-.97,4.53-.25,1.6-.2,3.03.08,4.49.08.45.3.76.64.92.9.44,1.71.09,2.92-.21.6-.15,1.21-.1,1.81.16.84.36,1.33.99,1.48,1.9.06.41-.06.72-.38.94-.1.07-.23.03-.28-.08-.21-.47-.52-.84-.93-1.1-.64-.4-1.69-.19-2.41-.03-.9.21-1.64.44-2.22.68-2.66,1.13-4.84,2.88-6.55,5.24-.39.53-.71,1.11-.98,1.72-.46,1.06-.84,2.07-1.12,3.15-.14.53-.24.86-.3.99-.34.78-.92,1.12-1.73,1.01-1.08-.14-2.2-.17-2.61-.19-1.72-.11-3.59.11-5.19.85-.89.41-1.48.69-1.76.86-.76.44-1.49.96-2.2,1.58-1.27,1.11-2.22,2.15-2.86,3.62-.27.62-.63,1.54-1.09,2.77-.24.66-.37,1.07-.37,1.23-.03.71.3,1.08.74,1.57.09.1.07.26-.05.33-.23.14-.49.15-.77.05-.56-.2-.95-.56-1.19-1.06-.31-.67-.4-1.2-.13-1.91.25-.66.44-1.32.55-1.99.19-1.1-.14-1.99-.98-2.67-.57-.46-1.39-1.02-2.45-1.67-.89-.55-1.78-.98-2.67-1.29-1.17-.41-2.25-.71-3.22-.89-3.28-.61-6.6-.69-9.96-.27-1.42.18-2.63.51-3.63,1-.71.34-1.36.67-1.93.99-.36.2-.95.62-1.76,1.27-.81.64-1.63,1.32-2.46,2.03-.34.29-.73.14-.98-.11-.84-.83-1.87-1.63-3.09-2.4-3.24-2.05-7.49-2.74-11.06-1.12-1.01.46-1.89,1.29-2.55,1.78-.53.39-.79.53-1.37.35-.44-.14-.87-.29-1.3-.47-.86-.35-1.49-.57-2.28-.84-.37-.13-.72-.22-1.05-.28-1.39-.25-2.73-.4-4-.44-2.82-.09-5.53.33-8.12,1.27-2.33.84-4.69,2.04-6.55,3.62-.17.14-.56.19-.66-.05-.37-.93,2.01-4.32,2.52-5.02.39-.54,1.2-1.62,2.43-3.22.57-.74,1.2-1.48,1.89-2.21.92-.97,1.6-1.66,2.06-2.06,1.14-.99,2.98-2.63,4.64-3.78,1.73-1.19,3.58-2.27,5.55-3.26.45-.23,1.59-.76,3.42-1.61.94-.44,2.14-.9,3.6-1.38,2.06-.68,3.98-1.22,5.77-1.61,1.74-.38,2.88-.62,3.42-.72,1.04-.2,1.68-.44,1.8-1.51.11-.95.19-1.52.24-1.7.26-.88.81-1.44,1.65-1.69.46-.14.84-.02,1.22.2.11.06.09.22-.03.26-1.13.37-1.7,1.24-1.39,2.44.37,1.45,1.68,2.02,3.01,2.29,1.35.28,2.78.46,4.31.53,3.29.16,6.36.23,9.64.12,1.43-.05,2.85-.18,4.26-.4,1.84-.29,3.44-.57,4.79-.84.83-.17,1.91-.46,2.69-.94.59-.37.93-.86,1.01-1.49.08-.69.04-1.35-.15-1.99-.17-.59-.55-1.23-.73-1.71-.38-.99-.5-1.92-.24-2.96.47-1.89,1.66-4.01,3.53-4.7.96-.35,1.99-.53,3.09-.53,1.17,0,2.29.35,3.35,1.06.36.24.78.77,1.26,1.02.7.37,1.49.37,2.37.01,1.08-.44,1.97-1.03,2.69-1.78,1.29-1.34,2.38-2.63,3.26-3.86.89-1.24,1.63-2.5,2.22-3.79.79-1.74,1.62-3.67,2.11-5.48.28-1,.51-2.05.71-3.17.33-1.83.6-3.72-.18-5.3-.27-.54-.69-.9-1.26-1.09-.47-.15-.88-.17-1.24-.04-.68.25-1.16.59-1.34,1.33-.03.12-.16.2-.26.14-.08-.04-.15-.11-.2-.22-.22-.46-.2-.91.07-1.36.45-.76,1.08-1.21,1.89-1.34,1.24-.2,2.2.24,3.01-.98.21-.32.75-1.15,1.6-2.5.78-1.23,1.81-2.59,2.52-3.72.53-.84.21-2.08.11-3.02-.56-5.11-.92-8.32-1.08-9.61-.12-.94-.35-2.06-.7-3.35-.18-.66-.28-1.15-.32-1.47-.13-1.07-.17-1.69-.3-2.75-.12-1-.45-1.87-1.01-2.66-.38-.54-.63-.99-.78-1.49-.59-1.97-1.07-3.73-1.78-5.56-.54-1.4-.79-2.16-1.37-3.19-.25-.45-.91-1.19-1.47-.98-.12.05-.34.2-.66.47-.24.2-.42.43-.55.7-.5,1.04-.97,2.34-1.42,3.89-.04.15-.13.27-.25.36-.07.05-.17.04-.22-.02-.09-.1-.16-.21-.21-.35-.43-1.15-.52-2.23-.7-3.5-.12-.85-.48-1.63-.79-2.41-.03-.08-.05-.15-.07-.23-.11-.59-.22-1.29-.31-2.08-.09-.77-.41-1.23-.86-2-.21-.36-.5-.51-.89-.45-1.03.16-1.11,2.67-1.12,3.46-.02,2.07.11,3.7-.27,5.43-.3,1.36-.5,2.67-.61,3.64-.13,1.12-.57,2.03-1.4,2.77-.76.68-1.3,1.09-1.69,1.95-.53,1.14-.83,1.79-.91,1.95-.45.88-.64,1.74-.53,2.61.05.37.13.85.24,1.46.19,1.05-.05,1.77-.66,2.79-.57.93-1.01,1.69-1.15,2.57-.12.81-.24,1.84-.34,3.11-.05.66-.19,1.21-.41,1.64-.57,1.12-.99,1.95-1.27,2.52-.08.17-.15.35-.19.54-.3,1.36-.5,2.73-.61,4.13-.04.47-.11.83-.23,1.1-.46,1.01-.86,2.09-1.21,3.25-.05.16-.21.26-.37.22-.06-.02-.11-.08-.16-.19-.14-.3-.25-.59-.34-.87-.25-.8-.57-1.35-.95-2.14-.15-.31-.25-.55-.29-.72-.19-.71-.44-1.72-.76-3.05-.17-.72-.16-2.15-.33-3.38-.07-.5-.12-.81-.16-.93-.38-1.28-.61-2.55-.69-3.79-.09-1.42-.19-2.74-.29-3.98-.17-2.03-.25-3.84-.38-5.8-.05-.69-.11-1.16-.2-1.4-.09-.27-.29-.63-.6-1.08-.43-.64-.72-1.38-.87-2.22-.18-1-.29-2.01-.35-3.03-.09-1.59-.27-2.85-.47-3.91-.13-.67-.17-1.18-.12-1.53.13-.93.34-1.68.13-2.26-.38-1.08-1.1-2.08-1.79-2.97-.61-.79-1.16-1.94-1.24-2.94-.21-2.67-.43-5.71-.66-9.13-.05-.79-.13-1.5-.37-2.34-.31-1.11-.41-2.27-1.04-3.28-.33-.53-.84-.77-1.53-.74-.39.02-.63.21-.74.58-.26.88-.42,1.89-.86,2.75-.52,1.03-1.03,1.88-1.06,2.91,0,.3.05.87.18,1.73.11.76.23,1.36.34,1.8.14.53.12,1.03-.02,1.47-.34,1.06-.59,1.8-.69,2.83-.09,1.02-.16,2.08-.28,3.17-.35,3.16-.51,4.86-.75,6.33-.02.14-.07.25-.14.34-.08.1-.24.09-.32-.02-.07-.1-.11-.21-.13-.36-.16-1.29-.24-2.64-1.13-3.63-.22-.25-.52-.05-.66.17-.17.27-.27.64-.31,1.09-.11,1.3-.23,2.37-.38,3.21-.17.97-.3,1.89-.41,2.74-.18,1.5-.5,3.13-.95,4.88-.51,1.98-.56,4.12-.84,5.91-.11.66-.2,1.36-.27,2.11-.18,1.8-.56,3.38-1.19,4.96-.2.51-.76,1.4-1.39.72-.24-.26-.4-.52-.49-.78-.4-1.25-.67-2.62-.81-4.11-.1-1.11-.66-2.14-1.16-3.22-.24-.53-.38-1.01-.41-1.45-.11-1.49-.18-2.37-.21-2.65-.08-.76-.52-1.71-.7-2.18-.12-.32-.23-.75-.32-1.3-.19-1.18-.32-1.84-.66-2.86-.14-.43-.24-.83-.3-1.2-.35-2.11-.6-3.77-.75-5-.07-.61-.19-1.28-.36-2-.12-.55-.24-1.31-.34-2.26-.05-.49-.17-.96-.35-1.41-.2-.49-.34-.88-.43-1.15-.21-.64-.38-1.08-.52-1.34-.79-1.45-1.07-3-.86-4.67.08-.63.02-1.24-.19-1.84-.36-1.04-.58-2.03-.7-3.13-.09-.82-.3-1.96-.95-2.43-.1-.07-.23-.06-.32.02-.56.51-.94,1.14-1.13,1.88-.12.47-.2.87-.25,1.21-.35,2.4-.64,4.64-.88,6.72-.02.2-.06.38-.1.53-.33,1.23-1.53,2-2.04,3.19-.3.72-.52,1.33-.65,1.83-.49,1.89-.63,3.98-.73,5.96-.05.99-.13,1.72-.25,2.2-.16.65-.35,1.27-.56,1.88-.41,1.2-.71,2.68-.85,3.84-.16,1.26-.4,2.15-.88,3.14-.03.07-.12.09-.18.04-.03-.02-.05-.07-.08-.12-.32-.72-.56-1.38-.72-2-.25-.98-.31-2.49-.66-3.55-.38-1.17-.71-2.34-.98-3.5-.14-.59-.23-1.15-.29-1.67-.18-1.75-.25-3.03-.43-5.93-.1-1.61-.38-3.13-.83-4.58-.63-1.99-1.07-4.01-1.16-5.86-.14-2.56-.22-4-.25-4.33-.08-.9-.16-1.5-.24-1.8-.36-1.29-1.67-2.27-2.89-2.74-.53-.2-1.01-.14-1.44.18-.87.66-1.36,1.38-1.92,2.5-.99,1.99-1.59,3.2-1.79,3.64-1.1,2.34-2.15,4.86-3.15,7.55-1.67,4.5-3.15,9.26-4.42,14.27-1.11,4.36-2.05,8.6-2.82,12.74-1.27,6.78-2.27,13.67-3.02,20.65-.9,8.36-1.48,16.78-1.74,25.26-.07,2.07-.06,3.88.02,5.92.1,2.65.2,4.89.29,6.73.54,10.36,1.54,20.4,3.01,30.12.36,2.39.8,5,1.32,7.81,1.72,9.26,4,18.44,7.16,27.13,1.84,5.07,4.06,9.88,6.65,14.45.18.32.46.84.84.6.44-.29.64-.77.73-1.32.07-.46.16-.88.28-1.24.27-.88.4-1.81.31-2.57-.1-.82-.3-1.92-.31-2.82,0-.56.07-1.36.24-2.39.1-.6.3-1.25.62-1.92.59-1.27.91-1.95.97-2.05.56-.89.89-1.5,1-1.83.25-.73.61-1.44,1.09-2.12.35-.5.81-.73,1.39-.69.75.05,1.08.6,1.25,1.27.08.3.19.79.35,1.47.03.12.07.24.13.36.69,1.37,1.19,2.4,1.53,3.1.29.61.36,1.26.43,1.91.12,1.14.62,1.46,1.37,2.15.97.87.96,2.4,1.54,3.48.22.42.63.89.92,1.41.46.81.79,1.38,1,1.71.55.86.69,1.86.87,2.81.06.29.17.65.36,1.06.26.6.57,1.45.92,2.55.23.73.47,1.28.69,1.65.44.7.86,1.49,1.27,2.36.3.64.58,1.18.84,1.6.57.92,1.54,1.07,2.39,1.41.48.19,1.73,1.06,2.05,1.57.32.5.52,1.16.59,1.98.03.3.19.48.49.54,1.43.32,2.98.61,4.67.89.15.02.31-.05.38-.18.2-.34.37-.62.65-.91.44-.47.79-.95,1.04-1.44.28-.53.46-.84.55-.93.39-.38.91-.8,1.47-.67.52.11,1.09.11,1.71,0,.27-.05.49,0,.66.17,1.04.98,2.2,1.76,3.48,2.33.55.25,1.17.98,1.78,1.17.75.24,1.5.03,2.2-.37.67-.39,1.09-.65,1.25-.77.27-.2.42-.47.47-.83.11-.83.31-1.51.74-2.34.07-.15.25-.54.52-1.17.62-1.43,1.32-2.66,2.1-3.67.34-.44.52-.95.54-1.53.02-.49.08-1.15.17-1.97.12-1.15.43-2,1.09-2.86.56-.74.98-1.3,1.26-1.69.06-.09.12-.19.16-.29.21-.51.41-.95.59-1.34.07-.15.27-.42.59-.79.04-.04.07-.09.1-.14.09-.17.15-.28.16-.34.32-1.28.63-2.57,1.78-3.13.35-.17.68-.12,1.01.13,1.46,1.17,1.53,2.72,1.72,4.43.06.56.18,1,.35,1.32.3.56.79,1.14,1.48,1.72.62.51.91,1,1.12,1.87.14.56.45,1.56.92,2.99.08.24.17.44.28.62.42.69.91,1.27,1.43,1.96.11.14.19.29.26.46.33.82.52,1.47.57,1.94.11,1.12.23,2.06.34,2.8.16,1.07.24,2.32.43,3.5.18,1.15.86,2.33,1.43,3.21.13.2.32.37.57.53.16.1.41.15.75.15.4,0,1.37,0,2.9,0,.42,0,.63-.17.69-.56.14-.92.31-1.71.5-2.37.08-.27.18-1.11.3-2.5.06-.64.14-1.06.25-1.24.28-.48.44-.86.5-1.16.24-1.31.65-2.61,1.04-3.8.4-1.2.94-2.27,1.64-3.22.58-.79.85-1.35,1.35-2.04.62-.86,1.29-.1,2.03-.16.27-.02,1.08-.42,1.42-.17.26.19.52.48.78.86.27.4.74,1.11,1.39,2.13.04.06.25.34.62.83.53.71.76,1.52,1.03,2.34.25.77.72,1.72.98,2.33.04.1.07.21.09.31.12.66.2,1.22.24,1.67.07.71.27,1.22.59,2.16.21.63.15,1.4.17,2.06.02.95.19,1.71.5,2.44.06.15.22.25.38.24l3.19-.11c.13,0,.25-.08.31-.2.35-.68.58-1.4.68-2.13.29-2.01.47-3.83.63-5.24.09-.76.34-1.46.37-2.24.04-1.06-.1-2.37-.07-3.15.02-.69.24-1.58.64-2.67.29-.79.85-1.73,1.83-1.55.75.14,1,.63,1.32,1.25.09.18.31.25.49.17,1.08-.51,1.54-4.21,1.68-5.41.06-.48.2-1.19.42-2.13.12-.51.33-1.55.61-3.11.26-1.43,1.13-1.96,2.25-2.86.39-.31.68-.7.87-1.18.17-.42.22-.98.33-1.36.03-.11.07-.21.12-.31.23-.48.36-.81.38-.99.09-.69.17-1.39.24-2.09.04-.37.2-.77.47-1.22.54-.88.97-1.6,1.89-1.71.59-.07,1.36-.04,1.77.37.53.53,1.12,1.31,1.78,2.36.12.2.25.37.36.51.89,1.08.93,2.52,1.07,3.9.04.38.17.81.4,1.29.38.81.82,1.52,1.31,2.14.4.51.68.9.82,1.18.33.65.56,1.12.68,1.41.38.93.47,2.11.62,2.93.04.21.1.41.18.61.32.8.52,1.43.6,1.88.08.5.18,1.46.29,2.85.04.53.05.94.01,1.24-.11.98-.17,1.57-.16,1.76.02,1.21.1,2.55.25,4.04.15,1.48.38,2.73.71,3.74.14.41.22.74.25.98.1.7.17,1.5.4,1.81.32.42.75.33.94-.13.06-.15.11-.32.16-.52.25-1.12.26-1.81.41-3.44.13-1.37.49-2.5,1.04-3.49.4-.71,1.17-.7,1.9-.59.57.09.77.66.96,1.13.04.09.09.18.16.25.22.23.39.52.49.85.09.28.19.48.29.61.24.29.4.47.48.55.06.06.13.11.21.14.53.23.91.42,1.14.58.71.46,1.4,1.25,2.1,1.68.44.26.96.56,1.56.89.69.38,1.42.6,2.19.67.44.04,1.2-.04,2.28-.25,3.15-.61,5.93-1.23,8.33-1.85,3.77-.98,7.54-2.2,10.94-3.88,1.06-.52,1.87-.98,2.44-1.39,1.16-.83,2.21-1.87,3.14-3.11,4.72-6.27,8.19-13.37,10.88-20.79,1.25-3.45,2.34-6.81,3.25-10.08,1.55-5.55,2.85-11.21,3.91-16.99.29-1.59.65-3.62,1.07-6.09.16-.94.11-2.24-.52-2.94-.6-.67-1.37-1.24-2.21-1.66-1.2-.6-2.35-1.22-3.13-2.46-1.01-1.6-1.72-3.01-2.04-4.88-.22-1.27-.34-1.97-.36-2.08-.24-1.2-.7-2.32-1.36-3.36-.42-.66-.64-1.06-1.06-1.59-.2-.25-.44-.54-.71-.86-.64-.75-.99-1.63-1.3-2.57-.36-1.11-.17-2.35.12-3.42.25-.9.23-1.61-.15-2.38-.31-.63-.6-1.19-.88-1.67-.5-.86-.38-2.01-.18-2.97.19-.92.34-1.64.44-2.17.19-.96-.14-1.67-.99-2.12-1.12-.59-1.81-.97-2.07-1.12-.66-.39-1.07-.68-1.24-.85-.59-.62-.94-1.35-1.05-2.17-.22-1.55-.47-2.97-.74-4.25-.15-.69-.36-1.34-.65-1.95-.27-.58-.68-.72-1.23-.42-.15.08-.25.23-.29.39-.1.52-.22,1.24-.25,1.87-.12,2.03-.5,4.06-1.22,5.97-.08.2-.31.88-.69,2.04-.1.31-.31.81-.47,1.22-.04.1-.18.1-.22,0l-6.19-18.58c-.04-.12,0-.24.09-.32.59-.52,1-1.15,1.25-1.89.62-1.89.32-3.58-.87-5.07-.79-.99-1.83-1.6-3.1-1.83-.09-.02-.15-.11-.12-.2.86-2.83,1.85-6.17,2.97-10.01.05-.17.19-.58.42-1.22.01-.04.04-.06.08-.07,1.14-.19,2.09-.65,2.85-1.39,1.17-1.15,1.7-2.56,1.59-4.23-.07-1.02-.45-1.98-1.14-2.86-.17-.21-.91-.76-.82-1.21,1.09-5.66,2.05-10.66,2.88-15,0-.01.05-.21.14-.59.01-.05.04-.08.08-.1.45-.23,1.02-.47,1.43-.8,1.33-1.06,2-2.46,2-4.22,0-1.99-1.12-3.77-2.9-4.63-.07-.04-.12-.11-.12-.19v-10.48c0-.1.06-.2.15-.24,2.8-1.32,4-4.69,2.42-7.4-.52-.89-1.29-1.62-2.29-2.16-.04-.02-.07-.05-.08-.09-.05-.12-.08-.24-.08-.39.02-2.39.02-5.51.02-9.37,0-.47,0-.72,0-.74.01-.12-.05-.23-.16-.29l-.95-.47c-.09-.04-.19.02-.19.12v12.1c0,.05.04.1.09.11.65.11,1.29.49,1.94,1.16,1.34,1.38,1.37,3.56.19,5.02-.63.78-1.41,1.24-2.36,1.38-.07.01-.12.07-.12.14v12.57c0,.05.04.1.09.12,1.51.39,2.48,1.33,2.91,2.82.21.75.18,1.5-.09,2.25-.54,1.46-1.56,2.31-3.08,2.55-.15.02-.28.14-.31.3l-3.35,17.37s0,.07.04.08ZM161.56,38.41c-.77,1.02-.56,2.48.47,3.26,1.03.78,2.49.58,3.26-.44.77-1.02.56-2.48-.47-3.26-1.03-.78-2.49-.58-3.26.44ZM169.01,62.55c0-1.29-1.05-2.33-2.33-2.33s-2.33,1.05-2.33,2.33,1.05,2.33,2.33,2.33,2.33-1.05,2.33-2.33ZM175.98,88.75c0-1.28-1.04-2.33-2.33-2.33s-2.33,1.04-2.33,2.33,1.04,2.33,2.33,2.33,2.33-1.04,2.33-2.33ZM183.82,113.42c0-1.29-1.04-2.33-2.33-2.33s-2.33,1.04-2.33,2.33,1.04,2.33,2.33,2.33,2.33-1.04,2.33-2.33ZM57.57,149.35c.18.16.19.32.03.49-.86.91-1.75,1.92-2.68,3.01-1.59,1.87-2.97,3.85-4.15,5.93-.99,1.74-2,3.69-2.73,5.53-.26.66-.53,1.41-.23,2.02.26.52.83.55,1.16.08.19-.27.4-.65.63-1.15.36-.79.72-1.7,1.1-2.47.81-1.64,1.8-3.22,2.84-4.8,1.85-2.8,3.98-5.19,6.14-7.56.59-.65,1-1.07,1.22-1.24.28-.22.59-.3.93-.27.99.11,1.11,1.11,1.2,1.88.51,4.25.98,8.08,1.41,11.47.14,1.05.27,2.47.5,3.78.09.51.24,1.34.78,1.46.56.12.83-.47.84-.95.01-.98-.02-1.78-.09-2.39-.28-2.49-.42-4.13-.73-6.29-.3-2.13-.52-3.77-.66-4.94-.15-1.25-.28-2.27-.4-3.06-.17-1.14-.67-2.45-1.72-3.08-.54-.33-1.36-.28-1.97-.18-.2.03-1.64.32-4.34.87-1.6.32-3.03.67-4.3,1.04-1.12.33-2.4.75-3.81,1.28-1.71.64-3.87,1.66-4.96,2.19-.29.14-1.12.58-2.51,1.33-.91.49-1.82,1.04-2.73,1.66-.59.4-2.73,1.8-1.63,2.63.41.32,1.01-.03,1.42-.32,1.34-.93,2.52-1.67,3.53-2.22.57-.31,1.18-.64,1.82-.98,4.15-2.2,8.59-3.85,13.22-4.76.22-.04.48-.06.77-.04.04,0,.08.02.12.05ZM113.36,148.02c-.59.1-1.01.59-.61,1.17.43.62,1.08.79,1.79.99,1.67.47,3.37.64,5.12.51.6-.04,1.28-.23,1.8-.48.45-.21.69-.51.73-.9.05-.55-.36-1.1-.99-.9-1.15.37-2.21.72-3.44.54-1.39-.2-2.65-.48-3.77-.82-.3-.09-.51-.12-.63-.11ZM107.49,159.55c-.37,1.06.63,1.67,1.63,1.53.85-.12,1.68-.03,2.63.11.48.07.81.05,1-.04.32-.16.53-.41.64-.77.18-.63.34-1.11.47-1.46.46-1.17.6-1.82.07-2.78-.22-.4-.69-.72-1.12-.56-.76.27-1.05,1.06-1,1.83.04.65.35,1.19-.24,1.73-.3.28-.78.24-1.13.09-1.02-.43-2.43-1.18-2.95.34ZM97.21,168.46c.65.6,1.28-.19,1.46-.76.68-2.17.91-4.4.7-6.7-.03-.36-.09-.71-.17-1.05-.18-.73-.99-1.41-1.68-.83-.21.18-.3.37-.25.59.35,1.57.44,3.18.26,4.84-.08.73-.23,1.43-.46,2.1-.24.71-.39,1.32.14,1.81ZM194.94,161.97c0-.55-.45-1-1-1s-1,.45-1,1,.45,1,1,1,1-.45,1-1ZM196.26,182.82c-.41-.35-1.03-.3-1.39.11-.36.42-.32,1.04.09,1.4.41.35,1.03.3,1.39-.11.36-.42.32-1.04-.09-1.4ZM196.16,207.5c-.54-.07-1.03.33-1.1.88-.07.55.32,1.05.86,1.11.54.07,1.03-.33,1.1-.88.07-.55-.32-1.05-.86-1.11ZM196.32,219.22c.04-.36-.22-.68-.58-.72h-.07c-.36-.05-.68.21-.72.57l-.16,1.39c-.04.36.22.68.58.72h.07c.36.05.68-.21.72-.57l.16-1.39Z"/>
    <path class="cls-3" d="M88.55,139.92c0,.08-.06.14-.14.14-.54,0-1.15-.37-1.86-.72-.48-.24-.88-.47-1.21-.72-.76-.55-1.43-1.08-1.94-1.75-.35-.46-.26-.96.2-1.26.54-.34,1.14-.44,1.8-.28.49.12.85.22,1.09.32,1.06.44,2.18.7,3.29.92.11.02.16.09.16.22,0,.12-.08.22-.2.24-.51.08-1.2.16-2.06.24-.24.02-.44.11-.61.26-.59.52-.02,1.2.47,1.53.24.17.99.44,1,.85Z"/>
    <path class="cls-3" d="M101.82,128.68c-.1.08-.25.01-.3-.13-.21-.67-.48-1.52-.96-2.01-.42-.42-.88.09-.95.52-.11.77-.33,1.66-.64,2.67-.05.15-.22.23-.36.16h-.02c-.15-.08-.23-.26-.17-.41.24-.69.31-1.37.2-2.02-.13-.79-.21-1.25-.23-1.39-.15-.86-.12-1.51.16-2.28.08-.22.19-.39.33-.52.46-.41.8-.23,1.2.17,1.34,1.32,1.63,2.98,1.85,4.81.02.21-.01.35-.11.43Z"/>
    <path class="cls-3" d="M153.74,83.37c.08.01.12.1.07.17-.14.2-.39.45-.75.76-1.88,1.61-3.88,3.7-5.29,5.87-1.21,1.88-2.1,3.48-2.66,4.8-.94,2.21-1.61,4.6-1.99,7.18-.04.3-.17.76-.24,1.01-.12.44-.4.6-.86.48-.11-.03-.55-.12-1.32-.29-.41-.09-.86-.14-1.34-.17-2.04-.12-3.89-.03-5.55.27-2.67.47-5.25,1.1-7.74,1.89-1.61.51-3.43,1.23-5.46,2.18-.21.1-.4.15-.58.17-.18.01-.33-.16-.28-.33.05-.19.14-.39.25-.59,1.68-2.89,3.11-5.41,5.17-7.74,0,0,.59-.64,1.75-1.91.67-.73,1.28-1.34,1.84-1.83,1.92-1.71,3.58-3.02,4.97-3.93.92-.6,2.35-1.41,4.28-2.42,1.28-.67,2.78-1.34,4.49-2,3.31-1.28,6.39-2.4,9.73-3.32.33-.09,1.07-.29,1.51-.22Z"/>
    <path class="cls-3" d="M172.4,214.66c.13,1.94.35,3.8.66,5.57.02.1.07.22.15.37.02.04.05.07.09.08.22.1.44.16.62.28.91.56,1.13,2.03,1.19,3.01,0,.16-.04.4-.14.72-.18.58-.55.98-1.1,1.21-.35.14-.71.28-1.11.19-1.54-.36-1.74-1.55-1.96-2.9-.16-.96.17-1.57.85-2.21.05-.05.08-.13.07-.2l-.68-4.81s-.03-.07-.07-.09c-.44-.18-.91-.25-1.34-.54-1.09-.75-1.65-1.73-1.7-2.95-.06-1.77.83-3.04,2.44-3.68.11-.05.19-.15.19-.27.04-1.23.03-2.62-.03-4.06-.13-3.07-.21-5.63-.24-7.69-.02-1.4-.12-2.91-.12-4.2,0-.11-.08-.2-.18-.23-1.02-.22-1.8-.75-2.34-1.62-.56-.9-.73-1.82-.5-2.76.3-1.27,1.24-2.28,2.46-2.72.1-.04.17-.13.17-.24l-.25-14.32s-.03-.08-.07-.09c-1.97-.6-3.23-2.25-2.85-4.33.24-1.31,1.26-2.47,2.55-2.81.31-.08.47-.28.48-.6.17-5.62.62-11.08,1.18-16.47,0-.06-.02-.12-.08-.15-1.16-.62-2.08-1.44-2.33-2.74-.33-1.69.38-3.31,1.96-4.09.42-.21.7-.25,1.22-.39.07-.02.12-.08.13-.15.14-1,.32-2.17.54-3.49,1.08-6.54,2.56-12.94,4.44-19.19.03-.09.15-.12.21-.04l1.02,1.31s.03.07.02.1c-.19.56-.38,1.17-.56,1.84-1.79,6.45-3.16,12.96-4.09,19.53-.07.51-.01,1.07-.61,1.23-.47.12-1.35.24-1.85.55-.59.36-.96.88-1.11,1.55-.29,1.33.77,2.69,2.1,2.78.21.01.4-.09.61.08.04.03.05.07.05.12-.44,4.26-.74,7.55-.91,9.88-.18,2.56-.32,5.18-.42,7.86-.02.48-.05.9-.09,1.27-.01.1-.09.18-.19.2-.64.12-1.26.2-1.81.52-1,.58-1.34,1.5-1.04,2.75.13.53.88,1.25,1.35,1.43.41.16.88.14,1.44.16.14,0,.25.11.25.25l.29,16.66s-.04.09-.08.09c-1.08.09-2.02.34-2.57,1.35-.55,1-.22,2.37.73,3.02.63.43,1.31.54,2.03.33.06-.02.12.03.13.09l.67,18.64c0,.06-.04.11-.1.11-1.11.11-2.18.31-2.7,1.42-.67,1.43.19,2.87,1.62,3.3.4.12.76.1,1.22.11.04,0,.07.03.07.07ZM172.72,222.03c-.61.11-.58.74-.45,1.46.13.72.32,1.32.93,1.21.61-.11.58-.74.45-1.46-.13-.72-.32-1.32-.93-1.21Z"/>
    <path class="cls-3" d="M175.26,144.35s.02-.07.06-.08l10.36-2.48c.05-.01.11,0,.14.04.67.71,1.46,1.24,2.36,1.57.08.03.12.13.07.21-1.15,1.66-2.32,3.52-3.02,5.45-.49,1.34-.86,2.65-1.12,3.92-.1.5-.18.83-.23.98-.22.67-.45,1.28-.58,1.95-.16.82-.28,1.77-.4,2.63-.06.41-.22.87-.43,1.22-.14.23-.33.27-.58.1-.04-.03-.07-.06-.08-.1-.11-.26-.42-.84-.92-1.74-.35-.62-.55-1.23-.71-1.97-.1-.48-.26-1.33-.49-1.91-.34-.86-.8-1.66-1.4-2.39-.11-.13-.23-.44-.37-.93-.23-.82-.48-1.73-.73-2.75-.27-1.09-.8-1.85-1.6-2.89-.19-.25-.3-.52-.31-.83Z"/>
    <path class="cls-3" d="M184.64,137.18c-1.83.43-5.05,1.2-9.67,2.31-.07.02-.12.02-.16.02-.1-.02-.16-.11-.15-.2.08-.62.15-1.18.23-1.68,1.01-6.48,2.41-12.9,4.23-19.25.03-.1.13-.15.23-.12.46.15.94.28,1.43.39.17.04.29.17.36.39.42,1.3.77,2.36,1.04,3.17,1.42,4.19,2.84,8.63,3.97,11.97.07.19.08.35.03.47-.01.04-.04.07-.06.1-.42.46-.95,1.14-1.13,1.75-.09.31-.17.51-.23.61-.03.04-.07.07-.11.08Z"/>
    <path class="cls-3" d="M179.98,100.85c-.05.07-.15.06-.18-.01-.09-.2-.16-.38-.2-.54-.1-.4-.32-1.1-.65-2.08-.56-1.66-1.15-3.71-1.69-5.34-.18-.54.39-.72.79-.61.75.19,2.04.52,3.85.97.15.04.25.16.27.32.01.13-.02.31-.08.52-1.18,3.94-1.83,6.07-1.93,6.4-.04.14-.1.26-.18.38Z"/>
    <path class="cls-3" d="M183.41,88.55c-.06.1-.18.15-.29.12-1.29-.33-2.5-.64-3.64-.91-.21-.05-.41-.11-.57-.19-.04-.02-.07-.05-.1-.08-.19-.25-.25-.67-.38-.95-.74-1.58-2.01-2.56-3.83-2.96-.14-.03-.24-.15-.3-.36-1.53-5.91-2.94-11.29-4.21-16.15-.02-.07-.02-.2,0-.37.03-.35.6-.87.93-.99.07-.02.2-.02.41.02,5.68.97,10.82,1.84,15.43,2.61.54.09.4.52.31.98-2.31,11.89-3.54,18.24-3.68,19.05-.01.08-.04.14-.06.19Z"/>
    <path class="cls-3" d="M187.29,63.66l-15.38-2.61c-.13-.02-.24-.11-.28-.24-.41-1.15-1.16-2.08-2.27-2.77-.35-.22-.75-.33-1.11-.52-.12-.06-.21-.19-.23-.33-.13-1.05-.27-2.11-.42-3.17-.58-4.07-1.02-7.19-1.31-9.36-.02-.15,0-.3.09-.45,0-.02.02-.04.04-.05l1.11-.94c.07-.05.15-.07.23-.04,1.25.43,2.63.69,4.04,1.03,4.44,1.05,9.52,2.25,15.22,3.59.23.06.49.06.49.38,0,2.86,0,7.96,0,15.31,0,.11-.1.2-.21.18Z"/>
    <circle class="cls-3" cx="189.86" cy="138.39" r=".79"/>
    <ellipse class="cls-3" cx="181.49" cy="113.42" rx=".81" ry=".79" transform="translate(-21.23 182.03) rotate(-50.7)"/>
    <circle class="cls-3" cx="173.7" cy="88.7" r=".8"/>
    <circle class="cls-3" cx="166.68" cy="62.55" r=".79"/>
    <circle class="cls-3" cx="163.43" cy="39.8" r=".8"/>
  </g>
  <g id="Belo">
    <path class="cls-1" d="M186.53,87.93l3.35-17.37c.03-.15.15-.27.31-.3,1.52-.23,2.54-1.08,3.08-2.55.27-.75.3-1.5.09-2.25-.43-1.49-1.39-2.43-2.91-2.82-.05-.01-.09-.06-.09-.12v-12.57c0-.07.05-.13.12-.14.95-.15,1.73-.61,2.36-1.38,1.18-1.46,1.15-3.64-.19-5.02-.65-.67-1.29-1.05-1.94-1.16-.05,0-.09-.05-.09-.11v-12.1c0-.1.1-.16.19-.12l.95.47c.11.05.17.17.16.29,0,.02,0,.27,0,.74,0,3.86,0,6.98-.02,9.37,0,.14.02.27.08.39.02.04.05.07.08.09,1.01.55,1.77,1.27,2.29,2.16,1.58,2.71.38,6.08-2.42,7.4-.09.04-.15.14-.15.24v10.48c0,.08.05.15.12.19,1.78.86,2.9,2.64,2.9,4.63,0,1.75-.66,3.16-2,4.22-.41.33-.97.57-1.43.8-.04.02-.07.06-.08.1-.09.38-.14.58-.14.59-.83,4.34-1.79,9.34-2.88,15-.09.45.65.99.82,1.21.69.89,1.08,1.84,1.14,2.86.11,1.67-.42,3.08-1.59,4.23-.75.74-1.7,1.2-2.85,1.39-.04,0-.07.03-.08.07-.23.64-.37,1.04-.42,1.22-1.12,3.84-2.12,7.17-2.97,10.01-.03.09.03.19.12.2,1.27.23,2.3.85,3.1,1.83,1.2,1.49,1.49,3.18.87,5.07-.24.74-.66,1.37-1.25,1.89-.09.08-.12.21-.09.32l6.19,18.58c.04.1.18.11.22,0,.16-.41.37-.91.47-1.22.38-1.15.61-1.83.69-2.04.72-1.92,1.1-3.94,1.22-5.97.04-.63.15-1.34.25-1.87.03-.17.14-.31.29-.39.55-.3.96-.16,1.23.42.28.62.5,1.27.65,1.95.27,1.28.52,2.7.74,4.25.12.82.47,1.55,1.05,2.17.17.18.58.46,1.24.85.25.15.94.52,2.07,1.12.85.45,1.18,1.15.99,2.12-.1.53-.25,1.25-.44,2.17-.2.96-.33,2.11.18,2.97.28.48.57,1.04.88,1.67.38.77.4,1.48.15,2.38-.3,1.07-.49,2.31-.12,3.42.31.94.66,1.82,1.3,2.57.28.32.51.61.71.86.42.53.64.93,1.06,1.59.66,1.03,1.11,2.15,1.36,3.36.02.11.14.81.36,2.08.32,1.88,1.03,3.28,2.04,4.88.78,1.24,1.93,1.87,3.13,2.46.84.42,1.61.99,2.21,1.66.63.7.68,2,.52,2.94-.42,2.47-.78,4.5-1.07,6.09-1.06,5.78-2.37,11.44-3.91,16.99-.91,3.27-2,6.63-3.25,10.08-2.69,7.42-6.17,14.51-10.88,20.79-.93,1.24-1.98,2.27-3.14,3.11-.57.41-1.38.87-2.44,1.39-3.4,1.68-7.17,2.89-10.94,3.88-2.4.63-5.18,1.25-8.33,1.85-1.08.21-1.84.29-2.28.25-.77-.07-1.5-.29-2.19-.67-.6-.33-1.12-.63-1.56-.89-.7-.42-1.39-1.21-2.1-1.68-.23-.15-.62-.35-1.14-.58-.08-.03-.15-.08-.21-.14-.08-.08-.24-.26-.48-.55-.11-.13-.2-.33-.29-.61-.11-.34-.27-.62-.49-.85-.07-.07-.13-.16-.16-.25-.19-.47-.39-1.05-.96-1.13-.74-.11-1.51-.12-1.9.59-.56,1-.91,2.13-1.04,3.49-.15,1.63-.16,2.32-.41,3.44-.05.2-.1.38-.16.52-.19.46-.62.55-.94.13-.23-.31-.3-1.11-.4-1.81-.03-.24-.12-.57-.25-.98-.33-1.01-.57-2.26-.71-3.74-.15-1.49-.23-2.84-.25-4.04,0-.19.05-.77.16-1.76.03-.29.03-.7-.01-1.24-.11-1.4-.21-2.35-.29-2.85-.08-.45-.28-1.08-.6-1.88-.08-.2-.14-.4-.18-.61-.15-.82-.24-2-.62-2.93-.12-.29-.34-.76-.68-1.41-.14-.28-.42-.67-.82-1.18-.49-.62-.93-1.33-1.31-2.14-.23-.49-.36-.92-.4-1.29-.14-1.38-.18-2.82-1.07-3.9-.12-.14-.24-.31-.36-.51-.66-1.04-1.26-1.83-1.78-2.36-.41-.41-1.18-.44-1.77-.37-.92.11-1.35.83-1.89,1.71-.27.45-.43.85-.47,1.22-.07.7-.15,1.4-.24,2.09-.02.18-.15.51-.38.99-.05.1-.09.2-.12.31-.12.38-.17.94-.33,1.36-.19.47-.48.87-.87,1.18-1.12.9-1.99,1.43-2.25,2.86-.28,1.56-.48,2.6-.61,3.11-.23.94-.37,1.65-.42,2.13-.14,1.2-.6,4.91-1.68,5.41-.18.08-.4.01-.49-.17-.32-.62-.57-1.11-1.32-1.25-.98-.18-1.54.76-1.83,1.55-.4,1.1-.62,1.99-.64,2.67-.03.78.11,2.09.07,3.15-.03.78-.28,1.48-.37,2.24-.16,1.4-.34,3.23-.63,5.24-.11.74-.34,1.45-.68,2.13-.06.12-.18.19-.31.2l-3.19.11c-.16,0-.32-.09-.38-.24-.31-.73-.48-1.49-.5-2.44-.02-.66.04-1.43-.17-2.06-.32-.94-.52-1.45-.59-2.16-.05-.45-.12-1.01-.24-1.67-.02-.11-.05-.21-.09-.31-.26-.6-.73-1.56-.98-2.33-.27-.82-.5-1.63-1.03-2.34-.37-.49-.58-.77-.62-.83-.66-1.02-1.12-1.72-1.39-2.13-.26-.38-.52-.67-.78-.86-.33-.24-1.14.15-1.42.17-.74.06-1.41-.7-2.03.16-.5.69-.77,1.25-1.35,2.04-.7.95-1.25,2.02-1.64,3.22-.39,1.18-.8,2.48-1.04,3.8-.05.3-.22.69-.5,1.16-.11.19-.19.6-.25,1.24-.12,1.39-.22,2.23-.3,2.5-.19.66-.36,1.45-.5,2.37-.06.39-.27.56-.69.56-1.53,0-2.49,0-2.9,0-.34,0-.6-.06-.75-.15-.25-.16-.44-.34-.57-.53-.58-.87-1.25-2.05-1.43-3.21-.19-1.17-.26-2.43-.43-3.5-.11-.74-.23-1.68-.34-2.8-.05-.47-.24-1.11-.57-1.94-.07-.16-.15-.31-.26-.46-.52-.69-1.01-1.27-1.43-1.96-.11-.18-.2-.38-.28-.62-.47-1.43-.78-2.43-.92-2.99-.21-.87-.51-1.35-1.12-1.87-.69-.58-1.19-1.15-1.48-1.72-.17-.32-.28-.76-.35-1.32-.18-1.71-.26-3.26-1.72-4.43-.32-.26-.66-.3-1.01-.13-1.15.56-1.46,1.86-1.78,3.13-.01.05-.07.17-.16.34-.03.05-.06.1-.1.14-.32.38-.52.64-.59.79-.18.38-.37.83-.59,1.34-.04.1-.1.2-.16.29-.28.39-.7.96-1.26,1.69-.66.86-.96,1.71-1.09,2.86-.09.82-.15,1.48-.17,1.97-.02.58-.21,1.09-.54,1.53-.78,1.01-1.48,2.23-2.1,3.67-.27.63-.45,1.02-.52,1.17-.42.83-.63,1.51-.74,2.34-.05.36-.2.63-.47.83-.16.12-.58.37-1.25.77-.7.41-1.45.62-2.2.37-.61-.2-1.23-.92-1.78-1.17-1.28-.57-2.44-1.35-3.48-2.33-.17-.16-.39-.22-.66-.17-.62.12-1.18.12-1.71,0-.57-.12-1.08.29-1.47.67-.09.09-.27.4-.55.93-.25.49-.6.97-1.04,1.44-.28.3-.44.57-.65.91-.08.13-.23.21-.38.18-1.69-.28-3.24-.57-4.67-.89-.3-.07-.46-.25-.49-.54-.07-.82-.27-1.48-.59-1.98-.32-.51-1.57-1.38-2.05-1.57-.85-.34-1.82-.49-2.39-1.41-.27-.42-.55-.96-.84-1.6-.4-.87-.83-1.66-1.27-2.36-.23-.36-.46-.91-.69-1.65-.35-1.1-.66-1.95-.92-2.55-.18-.42-.3-.77-.36-1.06-.18-.95-.33-1.95-.87-2.81-.21-.34-.55-.91-1-1.71-.3-.52-.7-.99-.92-1.41-.57-1.08-.57-2.6-1.54-3.48-.76-.69-1.25-1.01-1.37-2.15-.07-.65-.14-1.3-.43-1.91-.33-.69-.84-1.73-1.53-3.1-.06-.11-.1-.23-.13-.36-.15-.68-.27-1.17-.35-1.47-.17-.66-.5-1.22-1.25-1.27-.57-.04-1.04.2-1.39.69-.48.68-.84,1.39-1.09,2.12-.11.33-.45.94-1,1.83-.06.1-.39.78-.97,2.05-.31.68-.52,1.32-.62,1.92-.17,1.03-.25,1.83-.24,2.39,0,.9.21,2,.31,2.82.09.76-.04,1.7-.31,2.57-.11.37-.21.78-.28,1.24-.08.55-.28,1.03-.73,1.32-.38.24-.66-.28-.84-.6-2.59-4.57-4.81-9.38-6.65-14.45-3.16-8.69-5.45-17.87-7.16-27.13-.52-2.81-.96-5.42-1.32-7.81-1.46-9.72-2.47-19.76-3.01-30.12-.1-1.84-.19-4.08-.29-6.73-.08-2.04-.08-3.85-.02-5.92.26-8.48.84-16.9,1.74-25.26.75-6.98,1.76-13.86,3.02-20.65.77-4.14,1.71-8.39,2.82-12.74,1.28-5.02,2.75-9.77,4.42-14.27,1-2.69,2.05-5.21,3.15-7.55.2-.44.8-1.65,1.79-3.64.56-1.12,1.05-1.84,1.92-2.5.43-.33.91-.39,1.44-.18,1.22.47,2.53,1.45,2.89,2.74.08.29.16.89.24,1.8.03.33.11,1.78.25,4.33.1,1.85.53,3.87,1.16,5.86.46,1.45.74,2.98.83,4.58.17,2.9.24,4.19.43,5.93.05.52.15,1.07.29,1.67.27,1.16.6,2.33.98,3.5.35,1.06.41,2.57.66,3.55.16.62.4,1.28.72,2,.03.06.05.1.08.12.06.05.14.03.18-.04.48-.99.72-1.88.88-3.14.14-1.16.44-2.65.85-3.84.21-.61.4-1.23.56-1.88.12-.48.2-1.21.25-2.2.1-1.98.24-4.07.73-5.96.13-.51.35-1.12.65-1.83.5-1.2,1.7-1.96,2.04-3.19.04-.15.07-.33.1-.53.24-2.08.54-4.32.88-6.72.05-.34.13-.74.25-1.21.19-.74.57-1.37,1.13-1.88.09-.08.22-.09.32-.02.65.47.86,1.62.95,2.43.12,1.1.35,2.09.7,3.13.2.59.27,1.2.19,1.84-.21,1.66.08,3.22.86,4.67.14.26.32.71.52,1.34.09.28.23.66.43,1.15.18.45.3.92.35,1.41.11.95.22,1.71.34,2.26.16.72.28,1.39.36,2,.15,1.23.4,2.9.75,5,.06.37.16.77.3,1.2.33,1.02.46,1.68.66,2.86.09.54.2.98.32,1.3.18.47.62,1.42.7,2.18.03.28.1,1.16.21,2.65.03.44.17.92.41,1.45.5,1.08,1.05,2.11,1.16,3.22.14,1.49.41,2.86.81,4.11.08.26.25.52.49.78.63.68,1.18-.22,1.39-.72.62-1.58,1.01-3.16,1.19-4.96.07-.74.17-1.44.27-2.11.29-1.79.33-3.93.84-5.91.45-1.75.77-3.38.95-4.88.1-.85.24-1.76.41-2.74.15-.84.27-1.91.38-3.21.04-.46.14-.82.31-1.09.14-.23.43-.42.66-.17.89.99.97,2.34,1.13,3.63.02.14.06.26.13.36.08.11.24.12.32.02.07-.08.11-.2.14-.34.25-1.47.41-3.17.75-6.33.12-1.08.18-2.15.28-3.17.09-1.03.35-1.77.69-2.83.14-.44.15-.94.02-1.47-.11-.44-.23-1.04-.34-1.8-.13-.86-.19-1.44-.18-1.73.03-1.03.54-1.88,1.06-2.91.43-.86.6-1.87.86-2.75.11-.36.35-.56.74-.58.69-.04,1.2.21,1.53.74.63,1.01.72,2.17,1.04,3.28.24.85.32,1.55.37,2.34.23,3.42.45,6.47.66,9.13.08,1.01.62,2.15,1.24,2.94.69.89,1.4,1.89,1.79,2.97.21.58,0,1.33-.13,2.26-.05.35-.01.86.12,1.53.2,1.06.38,2.31.47,3.91.06,1.02.18,2.03.35,3.03.15.85.44,1.59.87,2.22.3.45.5.81.6,1.08.08.24.15.71.2,1.4.13,1.96.21,3.76.38,5.8.11,1.24.2,2.57.29,3.98.08,1.24.31,2.51.69,3.79.04.13.09.44.16.93.17,1.23.16,2.65.33,3.38.32,1.33.57,2.34.76,3.05.04.17.14.4.29.72.38.79.71,1.34.95,2.14.09.28.2.57.34.87.05.11.11.17.16.19.16.04.32-.06.37-.22.35-1.16.75-2.24,1.21-3.25.12-.26.2-.63.23-1.1.11-1.4.31-2.77.61-4.13.04-.19.11-.37.19-.54.27-.56.7-1.4,1.27-2.52.22-.43.35-.98.41-1.64.1-1.26.21-2.3.34-3.11.14-.88.58-1.64,1.15-2.57.62-1.02.85-1.74.66-2.79-.11-.61-.19-1.1-.24-1.46-.11-.87.08-1.73.53-2.61.08-.16.39-.82.91-1.95.4-.86.93-1.26,1.69-1.95.82-.74,1.27-1.65,1.4-2.77.11-.97.32-2.28.61-3.64.38-1.74.24-3.37.27-5.43,0-.79.09-3.3,1.12-3.46.39-.06.68.09.89.45.45.77.77,1.23.86,2,.09.79.2,1.48.31,2.08.01.08.04.16.07.23.3.78.67,1.56.79,2.41.18,1.27.27,2.34.7,3.5.05.13.12.25.21.35.06.06.15.07.22.02.12-.09.21-.21.25-.36.45-1.55.92-2.85,1.42-3.89.13-.27.31-.5.55-.7.31-.27.53-.42.66-.47.56-.21,1.22.53,1.47.98.58,1.02.83,1.79,1.37,3.19.71,1.83,1.19,3.59,1.78,5.56.15.51.4.95.78,1.49.56.79.89,1.66,1.01,2.66.13,1.05.17,1.68.3,2.75.04.32.15.81.32,1.47.35,1.29.58,2.41.7,3.35.16,1.29.52,4.5,1.08,9.61.1.94.42,2.18-.11,3.02-.71,1.13-1.73,2.5-2.52,3.72-.85,1.34-1.39,2.17-1.6,2.5-.81,1.21-1.77.77-3.01.98-.81.13-1.44.58-1.89,1.34-.27.45-.29.9-.07,1.36.05.11.12.18.2.22.1.05.23-.02.26-.14.18-.74.66-1.08,1.34-1.33.36-.13.77-.12,1.24.04.57.19.99.55,1.26,1.09.78,1.58.51,3.48.18,5.3-.2,1.11-.44,2.17-.71,3.17-.5,1.81-1.32,3.74-2.11,5.48-.59,1.29-1.33,2.56-2.22,3.79-.89,1.23-1.98,2.51-3.26,3.86-.71.75-1.61,1.34-2.69,1.78-.88.36-1.67.36-2.37-.01-.47-.25-.9-.78-1.26-1.02-1.06-.71-2.18-1.06-3.35-1.06-1.11,0-2.14.18-3.09.53-1.87.68-3.06,2.81-3.53,4.7-.26,1.04-.14,1.97.24,2.96.18.47.56,1.11.73,1.71.18.64.23,1.3.15,1.99-.08.63-.41,1.13-1.01,1.49-.78.48-1.86.77-2.69.94-1.35.27-2.94.56-4.79.84-1.41.22-2.83.36-4.26.4-3.28.11-6.36.05-9.64-.12-1.52-.08-2.96-.25-4.31-.53-1.32-.27-2.64-.85-3.01-2.29-.3-1.19.27-2.07,1.39-2.44.12-.04.14-.2.03-.26-.38-.22-.76-.33-1.22-.2-.84.25-1.39.81-1.65,1.69-.05.18-.13.75-.24,1.7-.12,1.07-.76,1.32-1.8,1.51-.54.1-1.68.34-3.42.72-1.78.39-3.7.93-5.77,1.61-1.46.48-2.66.94-3.6,1.38-1.82.85-2.97,1.39-3.42,1.61-1.98.99-3.83,2.07-5.55,3.26-1.66,1.14-3.5,2.79-4.64,3.78-.46.4-1.15,1.08-2.06,2.06-.69.74-1.33,1.47-1.89,2.21-1.23,1.61-2.05,2.68-2.43,3.22-.5.7-2.89,4.09-2.52,5.02.1.24.5.19.66.05,1.87-1.58,4.22-2.77,6.55-3.62,2.6-.94,5.3-1.36,8.12-1.27,1.28.04,2.61.19,4,.44.33.06.68.15,1.05.28.79.27,1.42.49,2.28.84.43.18.86.33,1.3.47.59.18.85.04,1.37-.35.66-.48,1.55-1.32,2.55-1.78,3.57-1.62,7.81-.93,11.06,1.12,1.22.77,2.25,1.57,3.09,2.4.25.25.64.4.98.11.83-.71,1.65-1.39,2.46-2.03.81-.64,1.4-1.07,1.76-1.27.57-.31,1.21-.64,1.93-.99,1-.48,2.21-.82,3.63-1,3.36-.43,6.69-.34,9.96.27.97.18,2.04.47,3.22.89.89.31,1.78.74,2.67,1.29,1.07.66,1.88,1.21,2.45,1.67.84.67,1.17,1.56.98,2.67-.11.66-.3,1.33-.55,1.99-.28.71-.18,1.23.13,1.91.23.5.63.85,1.19,1.06.28.1.54.09.77-.05.12-.07.14-.23.05-.33-.44-.5-.77-.86-.74-1.57,0-.16.13-.57.37-1.23.46-1.23.82-2.16,1.09-2.77.64-1.47,1.59-2.52,2.86-3.62.71-.62,1.45-1.15,2.2-1.58.29-.17.88-.45,1.76-.86,1.61-.74,3.48-.95,5.19-.85.4.02,1.52.05,2.61.19.81.11,1.39-.23,1.73-1.01.06-.13.15-.46.3-.99.29-1.08.66-2.09,1.12-3.15.27-.61.59-1.19.98-1.72,1.71-2.36,3.9-4.11,6.55-5.24.58-.25,1.32-.48,2.22-.68.72-.17,1.77-.38,2.41.03.41.26.72.63.93,1.1.05.11.18.15.28.08.32-.22.44-.53.38-.94-.14-.91-.64-1.54-1.48-1.9-.6-.25-1.2-.31-1.81-.16-1.22.3-2.03.65-2.92.21-.34-.17-.55-.47-.64-.92-.28-1.46-.32-2.89-.08-4.49.27-1.7.59-3.21.97-4.53.16-.56.46-1.27.89-2.14.57-1.15,1.07-2.07,1.47-2.76,1.23-2.05,2.8-3.79,4.69-5.39.65-.56,1.33-1.15,2.04-1.8.42-.39.91-.77,1.48-1.25.67-.57,1.3-1.59,1.13-2.52-.11-.61-.38-1.35-.8-2.22-.6-1.24-.8-2.53-.94-4.08-.18-1.99.35-4.1,1.3-5.74.47-.82,1.01-1.72,1.77-2.41,1.17-1.06,2.51-1.74,4.03-2.06.15-.03.29-.11.43-.22.53-.46.08-.93-.42-1.05-1.59-.37-3.35-.36-4.99-.26-.9.06-2.04.23-3.41.51-1.32.27-2.9.66-4.75,1.17-1.36.37-2.52.75-3.48,1.14-1.36.55-2.48,1.05-3.36,1.47-.21.1-.4.21-.57.32-.12.08-.18.24-.13.37.05.16.17.31.35.45.74.62,1.48,1.21,2.2,1.77,1.75,1.35,3.53,2.95,5,4.16,1.66,1.37,3.32,2.91,4.57,4.31.48.55.87,1.18,1.16,1.92.2.5.09.98-.33,1.27-.21.14-.39.15-.54.03-.3-.24-.59-.56-.89-.94-1.37-1.77-2.86-3.32-4.48-4.67-1.88-1.56-3.11-2.6-3.69-3.11-1.2-1.05-2.11-1.72-3.7-2.93-.45-.35-.9-.72-1.33-1.11-1.52-1.38-1.75-2.98-.69-4.79,1.07-1.84,2.24-3.73,3.54-5.69.46-.69,1.09-1.53,1.92-2.5,1.11-1.33,2.41-2.69,3.88-4.09,2.23-2.11,4.87-4.12,7.69-5.68,2.47-1.37,4.81-2.48,7.02-3.34.04-.01,1.39-.52,4.05-1.53,1.43-.54,2.94-1,4.53-1.39,1.87-.46,3.72-.65,5.53-.59.64.02,1.87.1,2.28.51.1.1.11.26.02.37-.12.15-.29.29-.5.4-1.16.63-2.18,1.35-3.07,2.17-1.18,1.1-2.36,2.3-3.55,3.61-1.8,1.98-3.17,4.34-4.34,6.72-.49,1.01-.77,2.04-1.17,3.15-.1.28-.22.72-.35,1.3-.31,1.41-.58,2.92-.82,4.53-.25,1.68-1.39,3.58-3.12,3.99-.29.07-.69.17-1.21.31-.12.03-.21.08-.25.15-.08.13-.06.3.06.41.69.62,1.25,1.32,1.68,2.09.52.93,1.18,2.39,1.61,3.53.26.68.89,2.43,1.9,5.25.25.7.4,1.28.45,1.76.07.63.21,1.97.41,4.03.04.43.17.95.39,1.57.21.61.54,1.56.92,2.35.14.29.44.91.91,1.87.49,1.02.67,2.1.55,3.25-.04.39-.14,1.01-.28,1.86-.17,1.02.05,1.92.46,3.03.27.73.43,1.19.46,1.37.16,1.01.28,1.78.37,2.31.06.37.16.71.29,1.04.28.68.35,1.12.57,1.83.12.38.67,1.08,1.15.84.45-.22.73-.59.86-1.1.25-1.03.38-1.57.4-1.64.08-.36.15-.92.2-1.68.23-3.53.38-5.82.43-6.86.06-1.01.26-1.99.6-2.94.35-.97.73-1.8.93-2.78.08-.42.25-1.18.48-2.27.08-.35.24-.82.43-1.25.41-.96.78-1.98,1.11-3.07.46-1.53.89-2.82,1.27-3.87.07-.19.4-.44.61-.22.33.35.65,1.07.78,1.46.31.92.57,1.68.79,2.56.18.74.37,1.48.57,2.22.28,1.07.57,1.85,1.22,2.82.44.66.84,1.48,1.19,2.47.08.24.2.42.36.54.12.1.31.07.38-.07.6-1.08,1.14-2.26,1.6-3.53.2-.53.33-1.02.4-1.44.12-.7.3-1.23.36-1.97.16-1.96.25-3.24.27-3.84.05-1.33.11-2.5.2-3.5.05-.55.42-1.91,1.19-1.7.65.18.91,1.34.95,1.95.14,1.95.24,3.4.3,4.34.02.25.09.76.24,1.55.25,1.4.32,2.41.51,4.1.03.27.07.47.11.61.02.06.27,1.05.76,2.98.02.07.11.08.15.02.02-.04.04-.1.06-.2.65-3.26,1.14-5.51,1.45-6.72.54-2.11.99-4.03,1.6-6.1.46-1.57.89-3.09,1.29-4.55.5-1.81.94-3.08,1.51-4.97.05-.18.05-.36,0-.54l-4.35-13.8c-.03-.09-.11-.16-.21-.17-2.26-.3-4.28-2.19-4.54-4.56-.19-1.81.36-3.3,1.67-4.49.03-.03.05-.07.07-.11.05-.18.04-.41-.03-.67-1.1-4.18-2.51-9.52-4.23-16.04-.04-.17-.17-.31-.33-.37-.17-.06-.44-.16-.79-.29-1.78-.63-3-2.23-3.33-4.08-.32-1.79.59-3.97,2.08-5.02.14-.1.22-.25.25-.47,0-.02,0-.05,0-.08l-1.78-12.78c-.01-.07-.06-.13-.12-.15-1.93-.69-3.13-2.02-3.6-3.99-.16-.67-.17-1.34-.03-1.98.36-1.68,1.33-2.95,2.91-3.82.15-.08.22-.22.22-.41-.02-1.55-.02-5.52-.01-11.9,0-.02.02-.04.04-.03l1.24.21s.01,0,.01.02v12.88c0,.09-.06.17-.14.2-.06.02-.23.09-.51.2-.62.24-1.17.66-1.68,1.28-.8.98-1.01,2.33-.59,3.52.52,1.5,1.62,2.39,3.3,2.68.09.02.17.09.18.18.22,1.5.9,6.36,2.06,14.58.02.15,0,.29-.07.41-.02.04-.05.06-.09.08-.46.25-.77.44-.91.56-1.44,1.24-1.87,3.21-.93,4.92.67,1.22,1.8,1.9,3.39,2.02.16.01.3.13.34.29l4.71,18.16c.02.07.02.14,0,.2-.14.45-.72.79-.91,1-1.48,1.64-1.35,4.06.24,5.53.6.56,1.43.93,2.27.95.2,0,.43.01.67.02.08,0,.15.05.17.13l5.37,17.02c.04.14-.01.29-.13.37-2.56,1.66-2.37,5.59.5,6.84.66.28,1.29.34,2.01.34.03,0,.06.02.07.05l5.88,17.63s0,.11-.05.13c-.93.6-1.55,1.44-1.75,2.51-.05.29-.1.54-.15.77-.01.05-.05.1-.1.11-1.45.37-3.32.81-5.61,1.33-2.27.52-4.58,1.06-6.92,1.64-.13.03-.58.14-1.34.31-.47.11-.71.36-.71.77,0,.56.43.99.98.86,4.49-1.09,9.11-2.19,13.85-3.3.05-.01.11,0,.15.04.33.3.58.73.87,1.01.77.73,1.7,1.1,2.8,1.13.03,0,.05.02.06.05,1.27,5.54,2.23,11.1,2.88,16.67.03.23.02.42-.03.58-.02.06-.06.12-.11.15-.67.46-1.07.91-1.2,1.72,0,.05-.04.09-.08.11-.14.08-.33.07-.51.11-7.92,1.66-14.84,3.12-20.75,4.36-1.17.25-.87,1.92.39,1.64,1.14-.26,3.32-.72,6.55-1.38,4.42-.91,8.48-1.72,12.18-2.43.81-.15,1.59-.32,2.33-.5.11-.03.23.02.3.11.32.45.8.77,1.43.95.07.02.12.08.13.15.52,4.49.89,9,1.13,13.51.05.99.08,1.99.08,3,0,.07-.04.13-.1.16-.76.38-1.25.96-1.48,1.74-.03.09-.11.17-.2.19-5.17,1.09-12.12,2.55-20.86,4.37-.24.05-.69.14-1.35.27-.49.09-.73.35-.74.76,0,.73.51.96,1.15.84,9.1-1.83,16.52-3.31,22.26-4.45.08-.02.16.02.21.09.31.46.72.76,1.21.89.09.02.16.11.16.2,0,2.03-.04,4.03.06,6.13.1,2.18.03,4.18.1,6.15.11,3.01.09,4.98.1,7.5,0,.07-.04.13-.09.16-.77.41-1.27.98-1.49,1.72-.03.09-.1.15-.19.16-8.86,1.39-16.13,2.51-21.82,3.38-.37.06-.59.14-.68.24-.32.4-.23,1.1.25,1.34.13.07.38.07.77.01,6.89-1.04,14.13-2.11,21.72-3.2.08-.01.16.03.19.1.25.48.8.73,1.35,1.05.14.08.23.22.24.38.02.26.03.52.02.78-.05,1.3-.15,2.94-.31,4.9,0,.06-.04.11-.09.14-.65.32-1.15.73-1.37,1.46-.23.76-.29,1.53-.19,2.31.21,1.75,2.55,2.25,3.6.93.38-.48.45-1.22.52-1.89.11-1.06.08-1.9-.96-2.5-.14-.08-.21-.23-.2-.39.21-2,.3-3.96.27-5.87,0-.11.07-.21.17-.26,1.32-.57,1.86-1.58,1.6-3.03-.08-.47-.32-.89-.73-1.27-.24-.22-.52-.32-.88-.5-.05-.03-.09-.07-.11-.13-.05-.14-.07-.29-.07-.44.03-1.96.02-3.58-.03-4.85-.11-2.49-.08-3.66-.07-6.55,0-2.42-.18-5.26-.15-7.89,0-.16.09-.3.23-.37,2.16-1.15,1.85-3.94-.4-4.74-.03-.01-.05-.04-.05-.07-.2-4.35-.37-7.42-.53-9.21-.2-2.35-.43-4.71-.69-7.09-.02-.15,0-.29.06-.43.02-.05.06-.09.1-.12,2.02-1.23,1.61-4.02-.63-4.68-.09-.03-.15-.1-.15-.19-.01-.22-.03-.42-.05-.59-.7-5.96-1.74-11.89-3.12-17.79-.03-.13-.15-.22-.28-.22-.69,0-1.46.09-2.02-.17-1.57-.73-1.94-2.63-.65-3.82.36-.33.83-.55,1.41-.65.09-.02.15-.11.12-.2l-6.3-18.89c-.03-.1,0-.2.09-.26,1.28-.92,2.1-2.58,1.68-4.17-.54-2.05-2.15-3.01-4.2-3.05-.03,0-.05-.02-.06-.05-.12-.53-.31-1.17-.55-1.93-1.05-3.27-2.63-8.28-4.74-15.04-.07-.21-.05-.35.05-.42.56-.37,1.01-.89,1.34-1.57.01-.03.05-.04.08-.04,2.32.57,4.79,1.2,7.42,1.88.28.07.53.08.75,0,.53-.16.54-.96.26-1.3-.09-.11-.37-.23-.83-.34-1.66-.41-4.05-1.01-7.15-1.82-.08-.02-.14-.09-.15-.18-.02-.36-.02-.65-.11-.97-.37-1.32-1.19-2.21-2.46-2.65-.43-.15-.82-.17-1.31-.19-.11,0-.2-.06-.25-.15-.1-.17-.17-.36-.23-.57-.65-2.54-2.19-8.4-4.61-17.59-.11-.42.03-.64.39-.89.6-.41,1.03-.95,1.27-1.6.02-.07.09-.11.17-.1,7.38,1.22,13.65,2.27,18.79,3.15.39.07.66.07.8.01.51-.21.6-1.01.14-1.35-.13-.1-.38-.18-.75-.24-4.21-.7-10.02-1.69-17.41-2.95-.47-.08-.86-.15-1.19-.22-.12-.03-.2-.13-.21-.25-.03-.39-.11-.73-.24-1.04-.61-1.38-1.66-2.2-3.14-2.44-.17-.03-.3-.16-.32-.33l-2.07-14.73c-.01-.08.03-.16.11-.19.88-.38,1.59-.94,2.02-1.8.06-.12.2-.18.32-.14.39.11,1.1.29,2.13.53,4.22,1,10.96,2.59,20.23,4.77,1,.24,1.34-1.34.48-1.54-2-.47-8.84-2.09-20.52-4.84-1.18-.28-1.88-.45-2.1-.52-.04-.01-.06-.04-.07-.08-.12-1.51-.79-2.63-2.02-3.36-.34-.2-.8-.32-1.04-.44-.04-.02-.07-.06-.07-.11v-12.7c0-.05.05-.09.1-.08l1.13.19s.06.04.07.07c0,.13.01.21.01.25,0,5.97,0,9.61-.02,10.93,0,.3.11.52.35.64,1.17.61,1.99,1.52,2.47,2.71.06.15.14.36.23.62.01.04.05.07.08.08l18.86,4.44c.07.02.15-.04.15-.11v-14.24c0-.07.07-.11.13-.09l1.19.51c.07.03.11.09.11.17v13.98c0,.1.07.19.17.22.96.24,1.41.28,2.06.74.43.3.68.95.81,1.42.2.73-.21,1.6-.72,2.11-.67.66-1.54.72-2.42.51-.07-.02-.14.04-.14.11v.15c0,6.65-.01,11.68-.02,15.09,0,.23.11.36.33.39,1.2.19,2.2.43,2.65,1.66.5,1.35-.27,2.73-1.66,3.09-.37.09-.83.03-1.14.08-.38.06-.39.29-.47.67-.7,3.63-1.72,8.88-3.04,15.73-.2,1.02-.43,2.16-.69,3.4-.07.32.09.52.48.62,1.11.28,1.78.93,2.03,1.94.21.87-.25,1.9-1.03,2.42-.64.43-1.66.34-2.42.18-.15-.03-.31.06-.35.21-1.34,4.46-2.23,7.44-2.66,8.94-.1.36-.12.69-.04,1.01.15.64.33,1.22.52,1.73.07.19.15.22.26.1.02-.02.03-.04.03-.06l3.06-10.16s.06-.08.11-.08c.52-.02.8,0,1.22-.11,2.11-.56,3.4-2.65,2.77-4.8-.32-1.11-1.05-1.96-2.18-2.54-.03-.02-.05-.05-.04-.08ZM187.29,63.66c.11.02.21-.07.21-.18,0-7.34,0-12.44,0-15.31,0-.31-.26-.32-.49-.38-5.7-1.34-10.77-2.54-15.22-3.59-1.41-.33-2.79-.6-4.04-1.03-.08-.03-.17-.01-.23.04l-1.11.94s-.03.03-.04.05c-.08.15-.11.3-.09.45.29,2.17.73,5.29,1.31,9.36.15,1.07.29,2.12.42,3.17.02.14.1.26.23.33.36.19.76.3,1.11.52,1.1.7,1.86,1.62,2.27,2.77.04.12.15.22.28.24l15.38,2.61ZM183.41,88.55s.05-.11.06-.19c.15-.81,1.38-7.16,3.68-19.05.09-.45.23-.89-.31-.98-4.61-.77-9.76-1.63-15.43-2.61-.2-.04-.34-.04-.41-.02-.33.12-.9.63-.93.99-.01.17-.01.3,0,.37,1.28,4.85,2.68,10.23,4.21,16.15.05.21.15.32.3.36,1.82.4,3.1,1.39,3.83,2.96.13.28.2.7.38.95.03.03.06.06.1.08.17.07.36.14.57.19,1.13.27,2.34.58,3.64.91.11.03.23-.02.29-.12ZM153.74,83.37c-.44-.07-1.18.13-1.51.22-3.34.92-6.42,2.04-9.73,3.32-1.71.66-3.21,1.33-4.49,2-1.93,1.01-3.36,1.82-4.28,2.42-1.39.91-3.04,2.22-4.97,3.93-.55.49-1.17,1.1-1.84,1.83-1.16,1.26-1.74,1.9-1.75,1.91-2.07,2.33-3.49,4.85-5.17,7.74-.12.2-.2.4-.25.59-.05.18.09.35.28.33.18-.01.37-.07.58-.17,2.03-.95,3.85-1.67,5.46-2.18,2.49-.79,5.07-1.42,7.74-1.89,1.66-.29,3.51-.38,5.55-.27.49.03.94.08,1.34.17.78.17,1.22.26,1.32.29.46.12.75-.04.86-.48.07-.25.19-.7.24-1.01.38-2.58,1.04-4.97,1.99-7.18.57-1.33,1.45-2.93,2.66-4.8,1.4-2.17,3.4-4.26,5.29-5.87.36-.31.61-.56.75-.76.04-.07,0-.15-.07-.17ZM179.98,100.85c.08-.12.14-.25.18-.38.1-.33.74-2.46,1.93-6.4.06-.21.09-.38.08-.52-.01-.15-.12-.28-.27-.32-1.81-.45-3.1-.78-3.85-.97-.4-.1-.97.07-.79.61.54,1.63,1.14,3.68,1.69,5.34.33.98.54,1.68.65,2.08.04.15.11.33.2.54.04.07.14.08.18.01ZM172.4,214.66s-.03-.07-.07-.07c-.45-.01-.81.01-1.22-.11-1.42-.44-2.29-1.87-1.62-3.3.52-1.11,1.59-1.31,2.7-1.42.06,0,.1-.05.1-.11l-.67-18.64c0-.06-.06-.11-.13-.09-.72.21-1.4.1-2.03-.33-.95-.65-1.28-2.01-.73-3.02.56-1.01,1.49-1.27,2.57-1.35.05,0,.08-.04.08-.09l-.29-16.66c0-.14-.11-.25-.25-.25-.56-.02-1.03,0-1.44-.16-.47-.18-1.22-.89-1.35-1.43-.3-1.25.04-2.17,1.04-2.75.55-.32,1.17-.4,1.81-.52.1-.02.18-.1.19-.2.04-.37.07-.79.09-1.27.1-2.68.24-5.3.42-7.86.17-2.33.47-5.62.91-9.88,0-.04-.01-.09-.05-.12-.21-.17-.4-.07-.61-.08-1.33-.09-2.39-1.46-2.1-2.78.15-.67.52-1.19,1.11-1.55.5-.3,1.38-.43,1.85-.55.6-.16.54-.72.61-1.23.94-6.57,2.3-13.08,4.09-19.53.19-.67.37-1.29.56-1.84.01-.03,0-.07-.02-.1l-1.02-1.31c-.06-.08-.18-.05-.21.04-1.87,6.25-3.35,12.65-4.44,19.19-.22,1.33-.4,2.49-.54,3.49,0,.07-.06.13-.13.15-.52.14-.8.18-1.22.39-1.59.78-2.29,2.4-1.96,4.09.25,1.31,1.17,2.12,2.33,2.74.05.03.08.09.08.15-.55,5.38-1.01,10.84-1.18,16.47-.01.32-.17.52-.48.6-1.29.34-2.31,1.49-2.55,2.81-.38,2.08.88,3.73,2.85,4.33.04.01.07.05.07.09l.25,14.32c0,.11-.07.21-.17.24-1.22.44-2.16,1.46-2.46,2.72-.22.95-.06,1.87.5,2.76.54.86,1.32,1.4,2.34,1.62.11.02.18.12.18.23,0,1.29.1,2.79.12,4.2.03,2.06.11,4.63.24,7.69.06,1.44.07,2.83.03,4.06,0,.12-.08.23-.19.27-1.61.64-2.5,1.91-2.44,3.68.04,1.22.61,2.2,1.7,2.95.43.29.9.37,1.34.54.04.01.07.05.07.09l.68,4.81c.01.08-.02.15-.07.2-.68.64-1.01,1.26-.85,2.21.22,1.35.42,2.54,1.96,2.9.4.09.76-.04,1.11-.19.55-.22.92-.63,1.1-1.21.1-.32.15-.57.14-.72-.06-.98-.28-2.45-1.19-3.01-.18-.11-.4-.18-.62-.28-.04-.02-.07-.05-.09-.08-.09-.14-.14-.27-.15-.37-.31-1.77-.53-3.63-.66-5.57ZM184.76,137.1c.06-.1.14-.3.23-.61.18-.61.7-1.29,1.13-1.75.03-.03.05-.06.06-.1.05-.12.04-.28-.03-.47-1.13-3.34-2.55-7.78-3.97-11.97-.27-.82-.62-1.87-1.04-3.17-.07-.22-.19-.35-.36-.39-.49-.11-.97-.24-1.43-.39-.1-.03-.2.02-.23.12-1.81,6.36-3.22,12.78-4.23,19.25-.08.5-.15,1.06-.23,1.68-.01.1.05.19.15.2.04,0,.09,0,.16-.02,4.62-1.11,7.85-1.88,9.67-2.31.05-.01.09-.04.11-.08ZM101.82,128.68c.1-.07.13-.22.11-.43-.22-1.83-.51-3.49-1.85-4.81-.4-.4-.74-.58-1.2-.17-.14.12-.24.3-.33.52-.28.78-.32,1.42-.16,2.28.02.13.1.59.23,1.39.11.65.04,1.33-.2,2.02-.06.16.02.33.17.4h.02c.14.08.31,0,.36-.15.31-1,.52-1.89.64-2.67.06-.43.53-.94.95-.52.49.49.75,1.34.96,2.01.04.14.19.2.3.13ZM88.55,139.92c-.01-.41-.76-.68-1-.85-.49-.34-1.07-1.02-.47-1.53.17-.15.38-.24.61-.26.86-.07,1.55-.15,2.06-.24.12-.02.2-.12.2-.24,0-.12-.06-.2-.16-.22-1.11-.22-2.23-.48-3.29-.92-.24-.1-.6-.21-1.09-.32-.66-.16-1.26-.07-1.8.28-.46.3-.55.8-.2,1.26.5.67,1.18,1.2,1.94,1.75.33.24.73.48,1.21.72.71.35,1.32.73,1.86.72.08,0,.14-.07.14-.14ZM190.65,138.39c0-.44-.36-.79-.79-.79s-.79.36-.79.79.36.79.79.79.79-.36.79-.79ZM175.26,144.35c.02.31.12.59.31.83.81,1.04,1.33,1.8,1.6,2.89.25,1.02.5,1.94.73,2.75.14.49.26.79.37.93.59.73,1.06,1.53,1.4,2.39.23.58.39,1.43.49,1.91.16.74.36,1.35.71,1.97.51.9.82,1.48.92,1.74.02.04.05.07.08.1.24.17.44.14.58-.1.21-.35.38-.81.43-1.22.12-.86.24-1.81.4-2.63.13-.66.36-1.27.58-1.95.05-.15.13-.48.23-.98.26-1.27.63-2.58,1.12-3.92.7-1.93,1.87-3.79,3.02-5.45.05-.07.02-.18-.07-.21-.9-.33-1.69-.86-2.36-1.57-.04-.04-.09-.05-.14-.04l-10.36,2.48s-.06.04-.06.08Z"/>
    <path class="cls-1" d="M183.82,113.42c0,1.29-1.04,2.33-2.33,2.33s-2.33-1.04-2.33-2.33,1.04-2.33,2.33-2.33,2.33,1.04,2.33,2.33ZM182,112.79c-.34-.28-.84-.22-1.12.13-.28.35-.24.85.1,1.12.34.28.84.22,1.12-.13.28-.35.24-.85-.1-1.12Z"/>
    <path class="cls-1" d="M175.98,88.75c0,1.28-1.04,2.33-2.33,2.33s-2.33-1.04-2.33-2.33,1.04-2.33,2.33-2.33,2.33,1.04,2.33,2.33ZM174.5,88.7c0-.44-.36-.8-.8-.8s-.8.36-.8.8.36.8.8.8.8-.36.8-.8Z"/>
    <path class="cls-1" d="M169.01,62.55c0,1.29-1.05,2.33-2.33,2.33s-2.33-1.05-2.33-2.33,1.05-2.33,2.33-2.33,2.33,1.05,2.33,2.33ZM167.47,62.55c0-.44-.36-.79-.79-.79s-.79.36-.79.79.36.79.79.79.79-.36.79-.79Z"/>
    <path class="cls-1" d="M161.56,38.41c.77-1.02,2.23-1.22,3.26-.44,1.03.78,1.24,2.24.47,3.26-.77,1.02-2.23,1.22-3.26.44-1.03-.78-1.24-2.24-.47-3.26ZM164.23,39.8c0-.44-.36-.8-.8-.8s-.8.36-.8.8.36.8.8.8.8-.36.8-.8Z"/>
    <path class="cls-1" d="M57.45,149.3c-.28-.02-.54,0-.77.04-4.63.91-9.07,2.56-13.22,4.76-.64.34-1.25.67-1.82.98-1.01.55-2.19,1.29-3.53,2.22-.41.28-1.01.63-1.42.32-1.09-.83,1.04-2.24,1.63-2.63.91-.61,1.82-1.16,2.73-1.66,1.38-.75,2.22-1.19,2.51-1.33,1.1-.53,3.25-1.55,4.96-2.19,1.42-.53,2.69-.95,3.81-1.28,1.27-.37,2.71-.71,4.3-1.04,2.7-.55,4.15-.84,4.34-.87.61-.1,1.43-.15,1.97.18,1.05.63,1.54,1.94,1.72,3.08.12.79.25,1.81.4,3.06.14,1.17.36,2.81.66,4.94.3,2.16.44,3.8.73,6.29.07.61.1,1.4.09,2.39,0,.47-.28,1.07-.84.95-.54-.12-.69-.95-.78-1.46-.23-1.3-.37-2.73-.5-3.78-.43-3.39-.9-7.22-1.41-11.47-.09-.76-.21-1.77-1.2-1.88-.34-.04-.65.05-.93.27-.22.17-.63.58-1.22,1.24-2.16,2.37-4.29,4.76-6.14,7.56-1.04,1.58-2.03,3.16-2.84,4.8-.38.77-.73,1.68-1.1,2.47-.23.5-.44.89-.63,1.15-.33.48-.9.45-1.16-.08-.3-.6-.03-1.35.23-2.02.73-1.84,1.74-3.79,2.73-5.53,1.18-2.08,2.56-4.06,4.15-5.93.92-1.09,1.82-2.09,2.68-3.01.16-.17.15-.33-.03-.49-.03-.03-.07-.05-.12-.05Z"/>
    <path class="cls-1" d="M98.68,167.7c-.18.57-.81,1.36-1.46.76-.54-.5-.38-1.11-.14-1.81.23-.67.38-1.37.46-2.1.18-1.66.09-3.27-.26-4.84-.05-.21.04-.41.25-.59.7-.58,1.5.1,1.68.83.08.34.14.69.17,1.05.22,2.3-.02,4.53-.7,6.7Z"/>
    <path class="cls-1" d="M109.13,161.08c-1,.14-2-.47-1.63-1.53.52-1.52,1.93-.77,2.95-.34.35.15.82.19,1.13-.09.59-.54.28-1.08.24-1.73-.05-.76.24-1.55,1-1.83.43-.16.9.16,1.12.56.53.97.39,1.61-.07,2.78-.14.35-.29.83-.47,1.46-.1.36-.31.62-.64.77-.19.09-.52.11-1,.04-.95-.13-1.78-.23-2.63-.11Z"/>
    <path class="cls-1" d="M112.76,149.19c-.4-.58.02-1.07.61-1.17.12-.02.33.02.63.11,1.12.34,2.38.61,3.77.82,1.23.18,2.29-.17,3.44-.54.63-.2,1.04.35.99.9-.04.39-.28.69-.73.9-.53.25-1.2.44-1.8.48-1.74.13-3.45-.04-5.12-.51-.71-.2-1.36-.36-1.79-.99Z"/>
    <path class="cls-1" d="M173.65,223.25c.13.72.16,1.35-.45,1.46-.61.11-.8-.49-.93-1.21-.13-.72-.16-1.35.45-1.46.61-.11.8.49.93,1.21Z"/>
    <rect class="cls-1" x="194.21" y="219.14" width="2.71" height="1.38" rx=".63" ry=".63" transform="translate(-45 389.25) rotate(-83.5)"/>
    <ellipse class="cls-1" cx="196.04" cy="208.5" rx="1" ry=".99" transform="translate(-34.5 378.07) rotate(-83.1)"/>
    <ellipse class="cls-1" cx="195.61" cy="183.57" rx="1" ry=".98" transform="translate(-71.22 211.23) rotate(-49.1)"/>
    <circle class="cls-1" cx="193.94" cy="161.97" r="1"/>
  </g>
</svg>